<?xml version="1.0" encoding="utf-8"?>
<!-- Generator: Adobe Illustrator 22.0.1, SVG Export Plug-In . SVG Version: 6.00 Build 0)  -->
<svg version="1.1" id="Layer_1" xmlns="http://www.w3.org/2000/svg" xmlns:xlink="http://www.w3.org/1999/xlink" x="0px" y="0px"
	 viewBox="0 0 322.037 242.974" style="enable-background:new 0 0 322.037 242.974;" xml:space="preserve">
<style type="text/css">
	.st0{opacity:0.3;fill:#ED5F7B;}
	.st1{fill:none;stroke:#333333;stroke-width:2;stroke-linecap:round;stroke-miterlimit:10;}
	.st2{fill:#FFFFFF;stroke:#333333;stroke-width:2;stroke-linecap:round;stroke-miterlimit:10;}
	.st3{opacity:0.3;fill:#FFFFFF;}
	.st4{fill:#FFFFFF;stroke:#333333;stroke-miterlimit:10;}
	.st5{fill:none;stroke:#333333;stroke-width:1.5;stroke-linecap:round;stroke-linejoin:round;stroke-miterlimit:10;}
</style>
<path class="st0" d="M317.519,242.974H28.556c-2.495,0-4.518-2.023-4.518-4.518v0c0-2.495,2.023-4.518,4.518-4.518h288.963
	c2.495,0,4.518,2.023,4.518,4.518v0C322.037,240.951,320.014,242.974,317.519,242.974z"/>
<g>
	<path class="st1" d="M154.797,8.211c0,0-5.252-5.601-21.136-7.045c-19.374-1.761-44.033,10.568-56.362,35.226
		C63.909,63.173,64.547,138.389,56.164,161.444c-7.045,19.374-24.658,19.374-24.658,19.374s21.294,27.9,66.929,31.703
		c42.271,3.523,84.542,5.284,105.678-28.181c16.452-26.05,14.751-127.19-3.523-158.517C188.261,4.688,161.842,1.166,154.797,8.211z"
		/>
	<path class="st2" d="M101.253,150.082h86.641c17.205,0,31.152,13.947,31.152,31.152v57.074H100.86l-16.652-23.975H70.101v-33.099
		C70.101,164.029,84.048,150.082,101.253,150.082z"/>
	<path class="st2" d="M163.066,131.474v14.04c0,10.691-8.667,19.359-19.359,19.359h0c-10.691,0-19.359-8.667-19.359-19.359v-14.04"
		/>
	<path class="st0" d="M143.707,158.969c-10.691,0-19.359-8.667-19.359-19.359v5.903c0,10.691,8.667,19.359,19.359,19.359
		s19.359-8.667,19.359-19.359v-5.903C163.066,150.302,154.399,158.969,143.707,158.969z"/>
	<path class="st1" d="M163.066,131.474v14.04c0,10.691-8.667,19.359-19.359,19.359h0c-10.691,0-19.359-8.667-19.359-19.359v-14.04"
		/>
	<path class="st0" d="M40.665,178.626c0,0,13.526,13.88,29.436,17.107c0,0.19,0,10.734,0,10.734s-30.66-12.284-38.595-25.648
		L40.665,178.626z"/>
	<path class="st0" d="M199.081,23.428c0,0,17.724,71.436,3.476,130.316c0.318,0.172,9.197,7.467,9.197,7.467
		S223.708,63.972,199.081,23.428z"/>
	<path class="st0" d="M186.41,90.992c0,0,0.525,3.648-0.047,11.139c-0.736,9.644-3.256,15.47-7.654,21.448
		c-5.714,7.767-11.524,10.686-11.524,10.686V150.5l-4.119-0.419v-17.596c0,0,24.166-12.813,19.912-41.494H186.41z"/>
	<rect x="182.977" y="68.095" class="st0" width="3.653" height="22.897"/>
	<rect x="101.615" y="70.662" class="st0" width="3.433" height="20.33"/>
	<path class="st0" d="M149.616,37.313l5.553-15.617c0,0,4.074,15.434-0.373,21.192C154.646,42.782,149.616,37.313,149.616,37.313z"
		/>
	<path class="st1" d="M183.858,68.095c6.323,0,11.448,5.126,11.448,11.448v0c0,6.323-5.126,11.448-11.448,11.448"/>
	<path class="st1" d="M96.372,72.081c-2.072,2.072-2.773,4.301-2.773,7.462v0c0,6.323,5.126,11.448,11.448,11.448"/>
	<path class="st3" d="M144.229,131.205L144.229,131.205c-16.804,0-32.786-14.044-38.563-29.392
		c1.898,19.628,18.437,34.973,38.563,34.973h0c20.126,0,36.664-15.345,38.563-34.973
		C178.196,116.685,161.032,131.205,144.229,131.205z"/>
	<path class="st1" d="M148.948,38.753l34.029,24.058v35.226c0,21.4-17.348,38.749-38.749,38.749h0
		c-21.4,0-38.749-17.348-38.749-38.749v-7.045V71.618"/>
	<path class="st1" d="M147.989,85.487v9.822c0,2.123-1.721,3.843-3.843,3.843h-2.989"/>
	<path class="st1" d="M159.794,105.213c0,0-2.6,10.399-14.948,10.399c-12.349,0-14.948-10.399-14.948-10.399"/>
	<path class="st1" d="M119.997,73.726c0,0,2.441-4.555,9.765-4.555s9.307,4.555,9.307,4.555"/>
	<path class="st1" d="M124.053,81.785c0-2.476,2.454-4.484,5.48-4.484c3.027,0,5.48,2.007,5.48,4.484"/>
	<path class="st1" d="M155.169,73.726c0,0,2.441-4.555,9.765-4.555s9.307,4.555,9.307,4.555"/>
	<path class="st1" d="M159.225,81.785c0-2.476,2.454-4.484,5.48-4.484c3.027,0,5.48,2.007,5.48,4.484"/>
	<path class="st1" d="M67.679,157.756c-3.416,12.824-9.662,23.767-17.348,25.261"/>
	<path class="st1" d="M70.44,140.661c-0.114,1.51-0.225,2.826-0.339,3.923"/>
	<path class="st1" d="M115.74,12.594c-9.408,3.435-20.879,10.516-28.325,25.117c-4.748,9.31-8.065,22.252-10.437,36.015"/>
	<path class="st1" d="M131.751,9.36c0,0-2.931-0.012-7.402,0.85"/>
	<path class="st0" d="M105.666,73.726c0,0,31.752-5.735,45.063-29.255l32.062,22.205v-3.865l-33.843-24.058
		c0,0-7.403,24.127-43.9,31.908L105.666,73.726z"/>
	<path class="st1" d="M93.151,71.618c0,0,51.078,3.523,61.646-51.078"/>
	<line class="st1" x1="180.787" y1="61.262" x2="187.454" y2="65.585"/>
	<line class="st2" x1="33.534" y1="233.938" x2="84.208" y2="233.938"/>
	<line class="st2" x1="50.803" y1="238.308" x2="316.209" y2="238.308"/>
	<line class="st1" x1="96.359" y1="194.195" x2="104.278" y2="194.195"/>
	<path class="st4" d="M100.86,150.082L100.86,150.082c-17.017,0-30.813,13.795-30.813,30.813v33.438v0
		c0,13.241,10.734,23.975,23.975,23.975h6.837h31.84v-23.975h-31.84v-23.629"/>
	<path class="st0" d="M104.967,234.891h-6.837c-13.241,0-23.975-10.734-23.975-23.975v-45.384
		c-2.608,4.523-4.107,9.766-4.107,15.362v33.438c0,13.241,10.734,23.975,23.975,23.975h6.837h31.84v-3.416H104.967z"/>
	<path class="st1" d="M100.86,150.082L100.86,150.082c-17.017,0-30.813,13.795-30.813,30.813v33.438v0
		c0,13.241,10.734,23.975,23.975,23.975h6.837h31.84v-23.975h-31.84v-23.629"/>
	<path class="st2" d="M139.592,218.378H132.7v19.929h26.822v0C159.522,227.301,150.599,218.378,139.592,218.378z"/>
	<g>
		<path class="st2" d="M306.315,238.308l-187.588,0c0-6.209,5.034-11.243,11.243-11.243h176.345V238.308z"/>
		<path class="st2" d="M303.265,227.065H169.309c-7.148,0-12.943-5.795-12.943-12.943v-86.903c0-7.148,5.795-12.943,12.943-12.943
			h133.956c7.148,0,12.943,5.795,12.943,12.943v86.903C316.209,221.27,310.414,227.065,303.265,227.065z"/>
		<path class="st0" d="M303.265,222.215H169.309c-7.148,0-12.943-5.795-12.943-12.943v4.85c0,7.149,5.795,12.943,12.943,12.943
			h133.956c7.148,0,12.943-5.795,12.943-12.943v-4.85C316.209,216.42,310.414,222.215,303.265,222.215z"/>
		<path class="st0" d="M236.287,176.023c-4.193,0-7.692-2.962-8.525-6.906c-0.123,0.584-0.191,1.189-0.191,1.81
			c0,4.814,3.902,8.716,8.716,8.716c4.814,0,8.716-3.902,8.716-8.716c0-0.621-0.067-1.226-0.191-1.81
			C243.979,173.062,240.48,176.023,236.287,176.023z"/>
		<circle class="st1" cx="236.287" cy="170.927" r="8.716"/>
	</g>
</g>
<circle class="st0" cx="262.74" cy="56.24" r="23.948"/>
<circle class="st0" cx="21.537" cy="136.786" r="21.537"/>
<path class="st5" d="M259.988,62.683l9.195-9.195c2.004,0.913,3.872,1.067,6.046-1.107c2.694-2.694,0.929-5.371,0.929-5.371
	l-2.438,2.438h-1.75l-2.438-2.438v-1.75l2.438-2.438c0,0-2.677-1.765-5.371,0.929c-2.174,2.174-2.02,4.042-1.107,6.046l-9.195,9.195
	c-2.004-0.913-3.872-1.067-6.046,1.107c-2.694,2.694-0.929,5.371-0.929,5.371l2.438-2.438h1.75l2.438,2.438v1.75l-2.438,2.438
	c0,0,2.677,1.765,5.371-0.929C261.055,66.555,260.901,64.688,259.988,62.683z"/>
<g>
	<path class="st5" d="M31.364,139.622l2.971,2.23c-1.197,2.073-0.814,1.41-2.011,3.483l-3.417-1.458
		c-2.047,1.182-2.866,1.655-4.913,2.837l-0.446,3.688c-2.394,0-1.628,0-4.021,0l-0.446-3.688c-2.047-1.182-2.866-1.655-4.913-2.837
		l-3.417,1.458c-1.197-2.073-0.814-1.41-2.011-3.483l2.971-2.23c0-2.363,0-3.31,0-5.673l-2.971-2.23
		c1.197-2.073,0.814-1.41,2.011-3.483l3.417,1.458c2.047-1.182,2.866-1.655,4.913-2.837l0.446-3.688c2.394,0,1.628,0,4.021,0
		l0.446,3.688c2.047,1.182,2.866,1.655,4.913,2.837l3.417-1.458c1.197,2.073,0.814,1.41,2.011,3.483l-2.971,2.23
		C31.364,136.313,31.364,137.259,31.364,139.622z"/>
	<circle class="st5" cx="21.537" cy="136.786" r="4.85"/>
</g>
</svg>
