<!--?xml version="1.0" encoding="utf-8"?-->
<!-- Generator: Adobe Illustrator 22.0.1, SVG Export Plug-In . SVG Version: 6.00 Build 0)  -->
<svg version="1.1" id="Layer_1" xmlns="http://www.w3.org/2000/svg" xmlns:xlink="http://www.w3.org/1999/xlink" x="0px" y="0px" viewBox="0 0 322.037 242.974" style="" xml:space="preserve" class="">
<style type="text/css">
	.st0{opacity:0.3;fill:#8FCCB9;}
	.st1{fill:none;stroke:#404040;stroke-width:2;stroke-linecap:round;stroke-miterlimit:10;}
	.st2{fill:#FFFFFF;stroke:#404040;stroke-width:2;stroke-linecap:round;stroke-miterlimit:10;}
	.st3{opacity:0.3;fill:#8FCCB9;}
	.st4{fill:#FFFFFF;stroke:#404040;stroke-miterlimit:10;}
	.st5{fill:none;stroke:#44ADC7;stroke-width:1.5;stroke-linecap:round;stroke-linejoin:round;stroke-miterlimit:10;}
</style>
<path class="st0 vnKkxAyt_0" d="M317.519,242.974H28.556c-2.495,0-4.518-2.023-4.518-4.518v0c0-2.495,2.023-4.518,4.518-4.518h288.963
	c2.495,0,4.518,2.023,4.518,4.518v0C322.037,240.951,320.014,242.974,317.519,242.974z"></path>
<g>
	<path class="st1 vnKkxAyt_1" d="M154.797,8.211c0,0-5.252-5.601-21.136-7.045c-19.374-1.761-44.033,10.568-56.362,35.226
		C63.909,63.173,64.547,138.389,56.164,161.444c-7.045,19.374-24.658,19.374-24.658,19.374s21.294,27.9,66.929,31.703
		c42.271,3.523,84.542,5.284,105.678-28.181c16.452-26.05,14.751-127.19-3.523-158.517C188.261,4.688,161.842,1.166,154.797,8.211z"></path>
	<path class="st2 vnKkxAyt_2" d="M101.253,150.082h86.641c17.205,0,31.152,13.947,31.152,31.152v57.074H100.86l-16.652-23.975H70.101v-33.099
		C70.101,164.029,84.048,150.082,101.253,150.082z"></path>
	<path class="st2 vnKkxAyt_3" d="M163.066,131.474v14.04c0,10.691-8.667,19.359-19.359,19.359h0c-10.691,0-19.359-8.667-19.359-19.359v-14.04"></path>
	<path class="st0 vnKkxAyt_4" d="M143.707,158.969c-10.691,0-19.359-8.667-19.359-19.359v5.903c0,10.691,8.667,19.359,19.359,19.359
		s19.359-8.667,19.359-19.359v-5.903C163.066,150.302,154.399,158.969,143.707,158.969z"></path>
	<path class="st1 vnKkxAyt_5" d="M163.066,131.474v14.04c0,10.691-8.667,19.359-19.359,19.359h0c-10.691,0-19.359-8.667-19.359-19.359v-14.04"></path>
	<path class="st0 vnKkxAyt_6" d="M40.665,178.626c0,0,13.526,13.88,29.436,17.107c0,0.19,0,10.734,0,10.734s-30.66-12.284-38.595-25.648
		L40.665,178.626z"></path>
	<path class="st0 vnKkxAyt_7" d="M199.081,23.428c0,0,17.724,71.436,3.476,130.316c0.318,0.172,9.197,7.467,9.197,7.467
		S223.708,63.972,199.081,23.428z"></path>
	<path class="st0 vnKkxAyt_8" d="M186.41,90.992c0,0,0.525,3.648-0.047,11.139c-0.736,9.644-3.256,15.47-7.654,21.448
		c-5.714,7.767-11.524,10.686-11.524,10.686V150.5l-4.119-0.419v-17.596c0,0,24.166-12.813,19.912-41.494H186.41z"></path>
	<path class="st0 vnKkxAyt_9" width="3.653" height="22.897" d="M182.977 68.095 L186.63 68.095 L186.63 90.99199999999999 L182.977 90.99199999999999 Z"></path>
	<path class="st0 vnKkxAyt_10" width="3.433" height="20.33" d="M101.615 70.662 L105.048 70.662 L105.048 90.992 L101.615 90.992 Z"></path>
	<path class="st0 vnKkxAyt_11" d="M149.616,37.313l5.553-15.617c0,0,4.074,15.434-0.373,21.192C154.646,42.782,149.616,37.313,149.616,37.313z"></path>
	<path class="st1 vnKkxAyt_12" d="M183.858,68.095c6.323,0,11.448,5.126,11.448,11.448v0c0,6.323-5.126,11.448-11.448,11.448"></path>
	<path class="st1 vnKkxAyt_13" d="M96.372,72.081c-2.072,2.072-2.773,4.301-2.773,7.462v0c0,6.323,5.126,11.448,11.448,11.448"></path>
	<path class="st3 vnKkxAyt_14" d="M144.229,131.205L144.229,131.205c-16.804,0-32.786-14.044-38.563-29.392
		c1.898,19.628,18.437,34.973,38.563,34.973h0c20.126,0,36.664-15.345,38.563-34.973
		C178.196,116.685,161.032,131.205,144.229,131.205z"></path>
	<path class="st1 vnKkxAyt_15" d="M148.948,38.753l34.029,24.058v35.226c0,21.4-17.348,38.749-38.749,38.749h0
		c-21.4,0-38.749-17.348-38.749-38.749v-7.045V71.618"></path>
	<path class="st1 vnKkxAyt_16" d="M147.989,85.487v9.822c0,2.123-1.721,3.843-3.843,3.843h-2.989"></path>
	<path class="st1 vnKkxAyt_17" d="M159.794,105.213c0,0-2.6,10.399-14.948,10.399c-12.349,0-14.948-10.399-14.948-10.399"></path>
	<path class="st1 vnKkxAyt_18" d="M119.997,73.726c0,0,2.441-4.555,9.765-4.555s9.307,4.555,9.307,4.555"></path>
	<path class="st1 vnKkxAyt_19" d="M124.053,81.785c0-2.476,2.454-4.484,5.48-4.484c3.027,0,5.48,2.007,5.48,4.484"></path>
	<path class="st1 vnKkxAyt_20" d="M155.169,73.726c0,0,2.441-4.555,9.765-4.555s9.307,4.555,9.307,4.555"></path>
	<path class="st1 vnKkxAyt_21" d="M159.225,81.785c0-2.476,2.454-4.484,5.48-4.484c3.027,0,5.48,2.007,5.48,4.484"></path>
	<path class="st1 vnKkxAyt_22" d="M67.679,157.756c-3.416,12.824-9.662,23.767-17.348,25.261"></path>
	<path class="st1 vnKkxAyt_23" d="M70.44,140.661c-0.114,1.51-0.225,2.826-0.339,3.923"></path>
	<path class="st1 vnKkxAyt_24" d="M115.74,12.594c-9.408,3.435-20.879,10.516-28.325,25.117c-4.748,9.31-8.065,22.252-10.437,36.015"></path>
	<path class="st1 vnKkxAyt_25" d="M131.751,9.36c0,0-2.931-0.012-7.402,0.85"></path>
	<path class="st0 vnKkxAyt_26" d="M105.666,73.726c0,0,31.752-5.735,45.063-29.255l32.062,22.205v-3.865l-33.843-24.058
		c0,0-7.403,24.127-43.9,31.908L105.666,73.726z"></path>
	<path class="st1 vnKkxAyt_27" d="M93.151,71.618c0,0,51.078,3.523,61.646-51.078"></path>
	<path class="st1 vnKkxAyt_28" d="M180.787,61.262L187.454,65.585"></path>
	<path class="st2 vnKkxAyt_29" d="M33.534,233.938L84.208,233.938"></path>
	<path class="st2 vnKkxAyt_30" d="M50.803,238.308L316.209,238.308"></path>
	<path class="st1 vnKkxAyt_31" d="M96.359,194.195L104.278,194.195"></path>
	<path class="st4 vnKkxAyt_32" d="M100.86,150.082L100.86,150.082c-17.017,0-30.813,13.795-30.813,30.813v33.438v0
		c0,13.241,10.734,23.975,23.975,23.975h6.837h31.84v-23.975h-31.84v-23.629"></path>
	<path class="st0 vnKkxAyt_33" d="M104.967,234.891h-6.837c-13.241,0-23.975-10.734-23.975-23.975v-45.384
		c-2.608,4.523-4.107,9.766-4.107,15.362v33.438c0,13.241,10.734,23.975,23.975,23.975h6.837h31.84v-3.416H104.967z"></path>
	<path class="st1 vnKkxAyt_34" d="M100.86,150.082L100.86,150.082c-17.017,0-30.813,13.795-30.813,30.813v33.438v0
		c0,13.241,10.734,23.975,23.975,23.975h6.837h31.84v-23.975h-31.84v-23.629"></path>
	<path class="st2 vnKkxAyt_35" d="M139.592,218.378H132.7v19.929h26.822v0C159.522,227.301,150.599,218.378,139.592,218.378z"></path>
	<g>
		<path class="st2 vnKkxAyt_36" d="M306.315,238.308l-187.588,0c0-6.209,5.034-11.243,11.243-11.243h176.345V238.308z"></path>
		<path class="st2 vnKkxAyt_37" d="M303.265,227.065H169.309c-7.148,0-12.943-5.795-12.943-12.943v-86.903c0-7.148,5.795-12.943,12.943-12.943
			h133.956c7.148,0,12.943,5.795,12.943,12.943v86.903C316.209,221.27,310.414,227.065,303.265,227.065z"></path>
		<path class="st0 vnKkxAyt_38" d="M303.265,222.215H169.309c-7.148,0-12.943-5.795-12.943-12.943v4.85c0,7.149,5.795,12.943,12.943,12.943
			h133.956c7.148,0,12.943-5.795,12.943-12.943v-4.85C316.209,216.42,310.414,222.215,303.265,222.215z"></path>
		<path class="st0 vnKkxAyt_39" d="M236.287,176.023c-4.193,0-7.692-2.962-8.525-6.906c-0.123,0.584-0.191,1.189-0.191,1.81
			c0,4.814,3.902,8.716,8.716,8.716c4.814,0,8.716-3.902,8.716-8.716c0-0.621-0.067-1.226-0.191-1.81
			C243.979,173.062,240.48,176.023,236.287,176.023z"></path>
		<path class="st1 vnKkxAyt_40" d="M227.571,170.927A8.716,8.716 0,1,1 245.00300000000001,170.927A8.716,8.716 0,1,1 227.571,170.927"></path>
	</g>
</g>
<path class="st0 vnKkxAyt_41" d="M238.792,56.24A23.948,23.948 0,1,1 286.688,56.24A23.948,23.948 0,1,1 238.792,56.24"></path>
<path class="st0 vnKkxAyt_42" d="M0,136.786A21.537,21.537 0,1,1 43.074,136.786A21.537,21.537 0,1,1 0,136.786"></path>
<path class="st5 vnKkxAyt_43" d="M259.988,62.683l9.195-9.195c2.004,0.913,3.872,1.067,6.046-1.107c2.694-2.694,0.929-5.371,0.929-5.371
	l-2.438,2.438h-1.75l-2.438-2.438v-1.75l2.438-2.438c0,0-2.677-1.765-5.371,0.929c-2.174,2.174-2.02,4.042-1.107,6.046l-9.195,9.195
	c-2.004-0.913-3.872-1.067-6.046,1.107c-2.694,2.694-0.929,5.371-0.929,5.371l2.438-2.438h1.75l2.438,2.438v1.75l-2.438,2.438
	c0,0,2.677,1.765,5.371-0.929C261.055,66.555,260.901,64.688,259.988,62.683z"></path>
<g>
	<path class="st5 vnKkxAyt_44" d="M31.364,139.622l2.971,2.23c-1.197,2.073-0.814,1.41-2.011,3.483l-3.417-1.458
		c-2.047,1.182-2.866,1.655-4.913,2.837l-0.446,3.688c-2.394,0-1.628,0-4.021,0l-0.446-3.688c-2.047-1.182-2.866-1.655-4.913-2.837
		l-3.417,1.458c-1.197-2.073-0.814-1.41-2.011-3.483l2.971-2.23c0-2.363,0-3.31,0-5.673l-2.971-2.23
		c1.197-2.073,0.814-1.41,2.011-3.483l3.417,1.458c2.047-1.182,2.866-1.655,4.913-2.837l0.446-3.688c2.394,0,1.628,0,4.021,0
		l0.446,3.688c2.047,1.182,2.866,1.655,4.913,2.837l3.417-1.458c1.197,2.073,0.814,1.41,2.011,3.483l-2.971,2.23
		C31.364,136.313,31.364,137.259,31.364,139.622z"></path>
	<path class="st5 vnKkxAyt_45" d="M16.686999999999998,136.786A4.85,4.85 0,1,1 26.387,136.786A4.85,4.85 0,1,1 16.686999999999998,136.786"></path>
</g>
<style data-made-with="vivus-instant">.vnKkxAyt_0{stroke-dasharray:607 609;stroke-dashoffset:608;animation:vnKkxAyt_draw_0 7300ms linear 0ms infinite,vnKkxAyt_fade 7300ms linear 0ms infinite;}.vnKkxAyt_1{stroke-dasharray:662 664;stroke-dashoffset:663;animation:vnKkxAyt_draw_1 7300ms linear 0ms infinite,vnKkxAyt_fade 7300ms linear 0ms infinite;}.vnKkxAyt_2{stroke-dasharray:437 439;stroke-dashoffset:438;animation:vnKkxAyt_draw_2 7300ms linear 0ms infinite,vnKkxAyt_fade 7300ms linear 0ms infinite;}.vnKkxAyt_3{stroke-dasharray:89 91;stroke-dashoffset:90;animation:vnKkxAyt_draw_3 7300ms linear 0ms infinite,vnKkxAyt_fade 7300ms linear 0ms infinite;}.vnKkxAyt_4{stroke-dasharray:134 136;stroke-dashoffset:135;animation:vnKkxAyt_draw_4 7300ms linear 0ms infinite,vnKkxAyt_fade 7300ms linear 0ms infinite;}.vnKkxAyt_5{stroke-dasharray:89 91;stroke-dashoffset:90;animation:vnKkxAyt_draw_5 7300ms linear 0ms infinite,vnKkxAyt_fade 7300ms linear 0ms infinite;}.vnKkxAyt_6{stroke-dasharray:102 104;stroke-dashoffset:103;animation:vnKkxAyt_draw_6 7300ms linear 0ms infinite,vnKkxAyt_fade 7300ms linear 0ms infinite;}.vnKkxAyt_7{stroke-dasharray:284 286;stroke-dashoffset:285;animation:vnKkxAyt_draw_7 7300ms linear 0ms infinite,vnKkxAyt_fade 7300ms linear 0ms infinite;}.vnKkxAyt_8{stroke-dasharray:141 143;stroke-dashoffset:142;animation:vnKkxAyt_draw_8 7300ms linear 0ms infinite,vnKkxAyt_fade 7300ms linear 0ms infinite;}.vnKkxAyt_9{stroke-dasharray:54 56;stroke-dashoffset:55;animation:vnKkxAyt_draw_9 7300ms linear 0ms infinite,vnKkxAyt_fade 7300ms linear 0ms infinite;}.vnKkxAyt_10{stroke-dasharray:48 50;stroke-dashoffset:49;animation:vnKkxAyt_draw_10 7300ms linear 0ms infinite,vnKkxAyt_fade 7300ms linear 0ms infinite;}.vnKkxAyt_11{stroke-dasharray:46 48;stroke-dashoffset:47;animation:vnKkxAyt_draw_11 7300ms linear 0ms infinite,vnKkxAyt_fade 7300ms linear 0ms infinite;}.vnKkxAyt_12{stroke-dasharray:36 38;stroke-dashoffset:37;animation:vnKkxAyt_draw_12 7300ms linear 0ms infinite,vnKkxAyt_fade 7300ms linear 0ms infinite;}.vnKkxAyt_13{stroke-dasharray:27 29;stroke-dashoffset:28;animation:vnKkxAyt_draw_13 7300ms linear 0ms infinite,vnKkxAyt_fade 7300ms linear 0ms infinite;}.vnKkxAyt_14{stroke-dasharray:217 219;stroke-dashoffset:218;animation:vnKkxAyt_draw_14 7300ms linear 0ms infinite,vnKkxAyt_fade 7300ms linear 0ms infinite;}.vnKkxAyt_15{stroke-dasharray:226 228;stroke-dashoffset:227;animation:vnKkxAyt_draw_15 7300ms linear 0ms infinite,vnKkxAyt_fade 7300ms linear 0ms infinite;}.vnKkxAyt_16{stroke-dasharray:19 21;stroke-dashoffset:20;animation:vnKkxAyt_draw_16 7300ms linear 0ms infinite,vnKkxAyt_fade 7300ms linear 0ms infinite;}.vnKkxAyt_17{stroke-dasharray:40 42;stroke-dashoffset:41;animation:vnKkxAyt_draw_17 7300ms linear 0ms infinite,vnKkxAyt_fade 7300ms linear 0ms infinite;}.vnKkxAyt_18{stroke-dasharray:23 25;stroke-dashoffset:24;animation:vnKkxAyt_draw_18 7300ms linear 0ms infinite,vnKkxAyt_fade 7300ms linear 0ms infinite;}.vnKkxAyt_19{stroke-dasharray:16 18;stroke-dashoffset:17;animation:vnKkxAyt_draw_19 7300ms linear 0ms infinite,vnKkxAyt_fade 7300ms linear 0ms infinite;}.vnKkxAyt_20{stroke-dasharray:23 25;stroke-dashoffset:24;animation:vnKkxAyt_draw_20 7300ms linear 0ms infinite,vnKkxAyt_fade 7300ms linear 0ms infinite;}.vnKkxAyt_21{stroke-dasharray:16 18;stroke-dashoffset:17;animation:vnKkxAyt_draw_21 7300ms linear 0ms infinite,vnKkxAyt_fade 7300ms linear 0ms infinite;}.vnKkxAyt_22{stroke-dasharray:32 34;stroke-dashoffset:33;animation:vnKkxAyt_draw_22 7300ms linear 0ms infinite,vnKkxAyt_fade 7300ms linear 0ms infinite;}.vnKkxAyt_23{stroke-dasharray:4 6;stroke-dashoffset:5;animation:vnKkxAyt_draw_23 7300ms linear 0ms infinite,vnKkxAyt_fade 7300ms linear 0ms infinite;}.vnKkxAyt_24{stroke-dasharray:77 79;stroke-dashoffset:78;animation:vnKkxAyt_draw_24 7300ms linear 0ms infinite,vnKkxAyt_fade 7300ms linear 0ms infinite;}.vnKkxAyt_25{stroke-dasharray:8 10;stroke-dashoffset:9;animation:vnKkxAyt_draw_25 7300ms linear 0ms infinite,vnKkxAyt_fade 7300ms linear 0ms infinite;}.vnKkxAyt_26{stroke-dasharray:200 202;stroke-dashoffset:201;animation:vnKkxAyt_draw_26 7300ms linear 0ms infinite,vnKkxAyt_fade 7300ms linear 0ms infinite;}.vnKkxAyt_27{stroke-dasharray:88 90;stroke-dashoffset:89;animation:vnKkxAyt_draw_27 7300ms linear 0ms infinite,vnKkxAyt_fade 7300ms linear 0ms infinite;}.vnKkxAyt_28{stroke-dasharray:8 10;stroke-dashoffset:9;animation:vnKkxAyt_draw_28 7300ms linear 0ms infinite,vnKkxAyt_fade 7300ms linear 0ms infinite;}.vnKkxAyt_29{stroke-dasharray:51 53;stroke-dashoffset:52;animation:vnKkxAyt_draw_29 7300ms linear 0ms infinite,vnKkxAyt_fade 7300ms linear 0ms infinite;}.vnKkxAyt_30{stroke-dasharray:266 268;stroke-dashoffset:267;animation:vnKkxAyt_draw_30 7300ms linear 0ms infinite,vnKkxAyt_fade 7300ms linear 0ms infinite;}.vnKkxAyt_31{stroke-dasharray:8 10;stroke-dashoffset:9;animation:vnKkxAyt_draw_31 7300ms linear 0ms infinite,vnKkxAyt_fade 7300ms linear 0ms infinite;}.vnKkxAyt_32{stroke-dasharray:238 240;stroke-dashoffset:239;animation:vnKkxAyt_draw_32 7300ms linear 0ms infinite,vnKkxAyt_fade 7300ms linear 0ms infinite;}.vnKkxAyt_33{stroke-dasharray:247 249;stroke-dashoffset:248;animation:vnKkxAyt_draw_33 7300ms linear 0ms infinite,vnKkxAyt_fade 7300ms linear 0ms infinite;}.vnKkxAyt_34{stroke-dasharray:238 240;stroke-dashoffset:239;animation:vnKkxAyt_draw_34 7300ms linear 0ms infinite,vnKkxAyt_fade 7300ms linear 0ms infinite;}.vnKkxAyt_35{stroke-dasharray:85 87;stroke-dashoffset:86;animation:vnKkxAyt_draw_35 7300ms linear 0ms infinite,vnKkxAyt_fade 7300ms linear 0ms infinite;}.vnKkxAyt_36{stroke-dasharray:393 395;stroke-dashoffset:394;animation:vnKkxAyt_draw_36 7300ms linear 0ms infinite,vnKkxAyt_fade 7300ms linear 0ms infinite;}.vnKkxAyt_37{stroke-dasharray:524 526;stroke-dashoffset:525;animation:vnKkxAyt_draw_37 7300ms linear 0ms infinite,vnKkxAyt_fade 7300ms linear 0ms infinite;}.vnKkxAyt_38{stroke-dasharray:359 361;stroke-dashoffset:360;animation:vnKkxAyt_draw_38 7300ms linear 0ms infinite,vnKkxAyt_fade 7300ms linear 0ms infinite;}.vnKkxAyt_39{stroke-dasharray:55 57;stroke-dashoffset:56;animation:vnKkxAyt_draw_39 7300ms linear 0ms infinite,vnKkxAyt_fade 7300ms linear 0ms infinite;}.vnKkxAyt_40{stroke-dasharray:55 57;stroke-dashoffset:56;animation:vnKkxAyt_draw_40 7300ms linear 0ms infinite,vnKkxAyt_fade 7300ms linear 0ms infinite;}.vnKkxAyt_41{stroke-dasharray:151 153;stroke-dashoffset:152;animation:vnKkxAyt_draw_41 7300ms linear 0ms infinite,vnKkxAyt_fade 7300ms linear 0ms infinite;}.vnKkxAyt_42{stroke-dasharray:136 138;stroke-dashoffset:137;animation:vnKkxAyt_draw_42 7300ms linear 0ms infinite,vnKkxAyt_fade 7300ms linear 0ms infinite;}.vnKkxAyt_43{stroke-dasharray:104 106;stroke-dashoffset:105;animation:vnKkxAyt_draw_43 7300ms linear 0ms infinite,vnKkxAyt_fade 7300ms linear 0ms infinite;}.vnKkxAyt_44{stroke-dasharray:103 105;stroke-dashoffset:104;animation:vnKkxAyt_draw_44 7300ms linear 0ms infinite,vnKkxAyt_fade 7300ms linear 0ms infinite;}.vnKkxAyt_45{stroke-dasharray:31 33;stroke-dashoffset:32;animation:vnKkxAyt_draw_45 7300ms linear 0ms infinite,vnKkxAyt_fade 7300ms linear 0ms infinite;}@keyframes vnKkxAyt_draw{100%{stroke-dashoffset:0;}}@keyframes vnKkxAyt_fade{0%{stroke-opacity:1;}79.45205479452055%{stroke-opacity:1;}100%{stroke-opacity:0;}}@keyframes vnKkxAyt_draw_0{10.95890410958904%{stroke-dashoffset: 608}52.054794520547944%{ stroke-dashoffset: 0;}100%{ stroke-dashoffset: 0;}}@keyframes vnKkxAyt_draw_1{10.95890410958904%{stroke-dashoffset: 663}52.054794520547944%{ stroke-dashoffset: 0;}100%{ stroke-dashoffset: 0;}}@keyframes vnKkxAyt_draw_2{10.95890410958904%{stroke-dashoffset: 438}52.054794520547944%{ stroke-dashoffset: 0;}100%{ stroke-dashoffset: 0;}}@keyframes vnKkxAyt_draw_3{10.95890410958904%{stroke-dashoffset: 90}52.054794520547944%{ stroke-dashoffset: 0;}100%{ stroke-dashoffset: 0;}}@keyframes vnKkxAyt_draw_4{10.95890410958904%{stroke-dashoffset: 135}52.054794520547944%{ stroke-dashoffset: 0;}100%{ stroke-dashoffset: 0;}}@keyframes vnKkxAyt_draw_5{10.95890410958904%{stroke-dashoffset: 90}52.054794520547944%{ stroke-dashoffset: 0;}100%{ stroke-dashoffset: 0;}}@keyframes vnKkxAyt_draw_6{10.95890410958904%{stroke-dashoffset: 103}52.054794520547944%{ stroke-dashoffset: 0;}100%{ stroke-dashoffset: 0;}}@keyframes vnKkxAyt_draw_7{10.95890410958904%{stroke-dashoffset: 285}52.054794520547944%{ stroke-dashoffset: 0;}100%{ stroke-dashoffset: 0;}}@keyframes vnKkxAyt_draw_8{10.95890410958904%{stroke-dashoffset: 142}52.054794520547944%{ stroke-dashoffset: 0;}100%{ stroke-dashoffset: 0;}}@keyframes vnKkxAyt_draw_9{10.95890410958904%{stroke-dashoffset: 55}52.054794520547944%{ stroke-dashoffset: 0;}100%{ stroke-dashoffset: 0;}}@keyframes vnKkxAyt_draw_10{10.95890410958904%{stroke-dashoffset: 49}52.054794520547944%{ stroke-dashoffset: 0;}100%{ stroke-dashoffset: 0;}}@keyframes vnKkxAyt_draw_11{10.95890410958904%{stroke-dashoffset: 47}52.054794520547944%{ stroke-dashoffset: 0;}100%{ stroke-dashoffset: 0;}}@keyframes vnKkxAyt_draw_12{10.95890410958904%{stroke-dashoffset: 37}52.054794520547944%{ stroke-dashoffset: 0;}100%{ stroke-dashoffset: 0;}}@keyframes vnKkxAyt_draw_13{10.95890410958904%{stroke-dashoffset: 28}52.054794520547944%{ stroke-dashoffset: 0;}100%{ stroke-dashoffset: 0;}}@keyframes vnKkxAyt_draw_14{10.95890410958904%{stroke-dashoffset: 218}52.054794520547944%{ stroke-dashoffset: 0;}100%{ stroke-dashoffset: 0;}}@keyframes vnKkxAyt_draw_15{10.95890410958904%{stroke-dashoffset: 227}52.054794520547944%{ stroke-dashoffset: 0;}100%{ stroke-dashoffset: 0;}}@keyframes vnKkxAyt_draw_16{10.95890410958904%{stroke-dashoffset: 20}52.054794520547944%{ stroke-dashoffset: 0;}100%{ stroke-dashoffset: 0;}}@keyframes vnKkxAyt_draw_17{10.95890410958904%{stroke-dashoffset: 41}52.054794520547944%{ stroke-dashoffset: 0;}100%{ stroke-dashoffset: 0;}}@keyframes vnKkxAyt_draw_18{10.95890410958904%{stroke-dashoffset: 24}52.054794520547944%{ stroke-dashoffset: 0;}100%{ stroke-dashoffset: 0;}}@keyframes vnKkxAyt_draw_19{10.95890410958904%{stroke-dashoffset: 17}52.054794520547944%{ stroke-dashoffset: 0;}100%{ stroke-dashoffset: 0;}}@keyframes vnKkxAyt_draw_20{10.95890410958904%{stroke-dashoffset: 24}52.054794520547944%{ stroke-dashoffset: 0;}100%{ stroke-dashoffset: 0;}}@keyframes vnKkxAyt_draw_21{10.95890410958904%{stroke-dashoffset: 17}52.054794520547944%{ stroke-dashoffset: 0;}100%{ stroke-dashoffset: 0;}}@keyframes vnKkxAyt_draw_22{10.95890410958904%{stroke-dashoffset: 33}52.054794520547944%{ stroke-dashoffset: 0;}100%{ stroke-dashoffset: 0;}}@keyframes vnKkxAyt_draw_23{10.95890410958904%{stroke-dashoffset: 5}52.054794520547944%{ stroke-dashoffset: 0;}100%{ stroke-dashoffset: 0;}}@keyframes vnKkxAyt_draw_24{10.95890410958904%{stroke-dashoffset: 78}52.054794520547944%{ stroke-dashoffset: 0;}100%{ stroke-dashoffset: 0;}}@keyframes vnKkxAyt_draw_25{10.95890410958904%{stroke-dashoffset: 9}52.054794520547944%{ stroke-dashoffset: 0;}100%{ stroke-dashoffset: 0;}}@keyframes vnKkxAyt_draw_26{10.95890410958904%{stroke-dashoffset: 201}52.054794520547944%{ stroke-dashoffset: 0;}100%{ stroke-dashoffset: 0;}}@keyframes vnKkxAyt_draw_27{10.95890410958904%{stroke-dashoffset: 89}52.054794520547944%{ stroke-dashoffset: 0;}100%{ stroke-dashoffset: 0;}}@keyframes vnKkxAyt_draw_28{10.95890410958904%{stroke-dashoffset: 9}52.054794520547944%{ stroke-dashoffset: 0;}100%{ stroke-dashoffset: 0;}}@keyframes vnKkxAyt_draw_29{10.95890410958904%{stroke-dashoffset: 52}52.054794520547944%{ stroke-dashoffset: 0;}100%{ stroke-dashoffset: 0;}}@keyframes vnKkxAyt_draw_30{10.95890410958904%{stroke-dashoffset: 267}52.054794520547944%{ stroke-dashoffset: 0;}100%{ stroke-dashoffset: 0;}}@keyframes vnKkxAyt_draw_31{10.95890410958904%{stroke-dashoffset: 9}52.054794520547944%{ stroke-dashoffset: 0;}100%{ stroke-dashoffset: 0;}}@keyframes vnKkxAyt_draw_32{10.95890410958904%{stroke-dashoffset: 239}52.054794520547944%{ stroke-dashoffset: 0;}100%{ stroke-dashoffset: 0;}}@keyframes vnKkxAyt_draw_33{10.95890410958904%{stroke-dashoffset: 248}52.054794520547944%{ stroke-dashoffset: 0;}100%{ stroke-dashoffset: 0;}}@keyframes vnKkxAyt_draw_34{10.95890410958904%{stroke-dashoffset: 239}52.054794520547944%{ stroke-dashoffset: 0;}100%{ stroke-dashoffset: 0;}}@keyframes vnKkxAyt_draw_35{10.95890410958904%{stroke-dashoffset: 86}52.054794520547944%{ stroke-dashoffset: 0;}100%{ stroke-dashoffset: 0;}}@keyframes vnKkxAyt_draw_36{10.95890410958904%{stroke-dashoffset: 394}52.054794520547944%{ stroke-dashoffset: 0;}100%{ stroke-dashoffset: 0;}}@keyframes vnKkxAyt_draw_37{10.95890410958904%{stroke-dashoffset: 525}52.054794520547944%{ stroke-dashoffset: 0;}100%{ stroke-dashoffset: 0;}}@keyframes vnKkxAyt_draw_38{10.95890410958904%{stroke-dashoffset: 360}52.054794520547944%{ stroke-dashoffset: 0;}100%{ stroke-dashoffset: 0;}}@keyframes vnKkxAyt_draw_39{10.95890410958904%{stroke-dashoffset: 56}52.054794520547944%{ stroke-dashoffset: 0;}100%{ stroke-dashoffset: 0;}}@keyframes vnKkxAyt_draw_40{10.95890410958904%{stroke-dashoffset: 56}52.054794520547944%{ stroke-dashoffset: 0;}100%{ stroke-dashoffset: 0;}}@keyframes vnKkxAyt_draw_41{10.95890410958904%{stroke-dashoffset: 152}52.054794520547944%{ stroke-dashoffset: 0;}100%{ stroke-dashoffset: 0;}}@keyframes vnKkxAyt_draw_42{10.95890410958904%{stroke-dashoffset: 137}52.054794520547944%{ stroke-dashoffset: 0;}100%{ stroke-dashoffset: 0;}}@keyframes vnKkxAyt_draw_43{10.95890410958904%{stroke-dashoffset: 105}52.054794520547944%{ stroke-dashoffset: 0;}100%{ stroke-dashoffset: 0;}}@keyframes vnKkxAyt_draw_44{10.95890410958904%{stroke-dashoffset: 104}52.054794520547944%{ stroke-dashoffset: 0;}100%{ stroke-dashoffset: 0;}}@keyframes vnKkxAyt_draw_45{10.95890410958904%{stroke-dashoffset: 32}52.054794520547944%{ stroke-dashoffset: 0;}100%{ stroke-dashoffset: 0;}}</style></svg>
