<?xml version="1.0" encoding="UTF-8"?>
<svg width="360px" height="140px" viewBox="0 0 360 140" version="1.1" xmlns="http://www.w3.org/2000/svg" xmlns:xlink="http://www.w3.org/1999/xlink">
    <!-- Generator: Sketch 49.1 (51147) - http://www.bohemiancoding.com/sketch -->
    <title>flourishes/large/life/important-info-income-protection-360x140</title>
    <desc>Created with Sketch.</desc>
    <defs>
        <path d="M0.395,1.184 C0.351,1.193 0.512,2.008 0.469,2.021 L0.14,2.602 L0.372,2.87 C1.023,3.143 1.916,2.914 2.345,2.355 L2.713,0.845 L2.322,0.577 L0.395,1.184 Z" id="path-1"></path>
        <path d="M0.065,1.184 C4.593,10.245 11.253,10.694 14.465,10.294 C11.432,2.544 6.347,0.932 2.641,0.932 C1.666,0.932 0.787,1.043 0.065,1.184 Z" id="path-3"></path>
        <path d="M0.698,0.621 C5.448,8.598 12.084,9.165 15.269,8.905 C11.922,1.858 6.563,0.466 2.854,0.466 C2.044,0.466 1.313,0.532 0.698,0.621 Z" id="path-5"></path>
        <path d="M0.754,0.964 C6.017,6.556 12.005,6.39 14.81,5.908 C11.477,1.612 7.365,0.578 4.176,0.578 C2.827,0.578 1.644,0.763 0.754,0.964 Z" id="path-7"></path>
        <path d="M0.444,1.228 C6.799,6.326 13.404,5.625 16.456,4.895 C12.891,1.429 8.909,0.478 5.612,0.478 C3.52,0.478 1.703,0.861 0.444,1.228 Z" id="path-9"></path>
        <path d="M3.04,16.934 C6.054,9.389 3.421,3.329 1.814,0.645 C-1.9,7.859 1.171,14.137 3.04,16.934 Z" id="path-11"></path>
        <path d="M2.779,17.205 C6.787,10.132 4.999,3.773 3.768,0.9 C-0.889,7.552 1.306,14.182 2.779,17.205 Z" id="path-13"></path>
        <path d="M0.952,15.537 C6.789,9.857 6.857,3.256 6.482,0.155 C0.143,5.25 0.386,12.226 0.952,15.537 Z" id="path-15"></path>
        <path d="M0.745,15.208 C9.325,9.981 9.258,3.347 8.619,0.199 C-0.727,4.795 -0.185,11.833 0.745,15.208 Z" id="path-17"></path>
        <path d="M0.344,1.063 C5.969,5.527 11.785,4.878 14.473,4.22 C11.343,1.211 7.864,0.378 4.973,0.379 C3.096,0.379 1.467,0.73 0.344,1.063 Z" id="path-19"></path>
        <path d="M3.974,14.212 C5.726,7.273 2.72,2.281 1.002,0.124 C-1.401,6.852 2.015,11.984 3.974,14.212 Z" id="path-21"></path>
        <path d="M1.786,17.719 C6.743,10.581 5.463,3.641 4.435,0.465 C-1.17,7.092 0.514,14.362 1.786,17.719 Z" id="path-23"></path>
        <path d="M1.73,17.956 C6.688,10.816 5.408,3.877 4.381,0.702 C-1.225,7.327 0.458,14.597 1.73,17.956 Z" id="path-25"></path>
        <path d="M7.271,15.873 C9.558,5.785 4.59,1.548 1.795,0.012 C-1.513,10.292 4.098,14.417 7.271,15.873 Z" id="path-27"></path>
        <path d="M0.14,2.378 C6.173,8.036 11.063,5.606 13.212,3.94 C10.178,1.565 7.501,0.801 5.312,0.801 C2.984,0.801 1.208,1.666 0.14,2.378 Z" id="path-29"></path>
        <path d="M0.829,1.712 C6.732,6.319 11.831,4.008 14.1,2.478 C11.328,0.705 8.808,0.112 6.675,0.112 C4.06,0.112 2.028,1.005 0.829,1.712 Z" id="path-31"></path>
        <path d="M0.97,2.709 C2.928,4.71 4.775,5.839 6.464,6.388 L13.88,3.616 C12.801,2.812 11.769,2.217 10.789,1.786 C10.487,1.656 10.193,1.54 9.902,1.439 C8.693,1.017 7.571,0.847 6.547,0.847 C4.038,0.847 2.121,1.869 0.97,2.709 Z" id="path-33"></path>
        <path d="M1.25,17.729 C6.88,11.103 6.284,4.073 5.573,0.813 C-0.655,6.867 0.312,14.264 1.25,17.729 Z" id="path-35"></path>
        <path d="M0.753,15.963 C7.618,10.607 8.467,3.603 8.432,0.268 C1.101,4.941 0.54,12.381 0.753,15.963 Z" id="path-37"></path>
        <path d="M0.606,10.875 C7.776,8.361 10.446,2.818 11.356,0.055 C3.993,1.877 1.439,7.86 0.606,10.875 Z" id="path-39"></path>
        <path d="M0.251,1.843 C7.183,6.77 14.017,5.64 17.153,4.695 C13.607,1.629 9.832,0.72 6.603,0.721 C3.99,0.721 1.735,1.316 0.251,1.843 Z" id="path-41"></path>
        <path d="M0.562,2.106 C7.529,6.794 14.018,5.299 16.968,4.175 C13.671,1.469 10.307,0.621 7.385,0.621 C4.532,0.621 2.099,1.429 0.562,2.106 Z" id="path-43"></path>
        <path d="M0.606,1.809 C7.636,6.54 14.182,5.031 17.159,3.897 C13.833,1.166 10.439,0.31 7.489,0.31 C4.611,0.311 2.156,1.126 0.606,1.809 Z" id="path-45"></path>
        <path d="M0.661,11.269 C7.732,8.793 10.364,3.326 11.262,0.602 C4.001,2.398 1.483,8.297 0.661,11.269 Z" id="path-47"></path>
        <path d="M0.661,2.335 C7.594,7 14.049,5.512 16.984,4.394 C13.704,1.7 10.356,0.856 7.448,0.856 C4.609,0.857 2.19,1.661 0.661,2.335 Z" id="path-49"></path>
        <path d="M1.304,17.128 C6.937,10.502 6.341,3.472 5.63,0.21 C-0.598,6.264 0.367,13.663 1.304,17.128 Z" id="path-51"></path>
        <path d="M17.293,1.924 C13.496,1.924 7.994,1.426 0.791,0.433 L7.512,25.081 L28.07,25.081 L33.795,0.433 C26.594,1.426 21.092,1.924 17.293,1.924 Z" id="path-53"></path>
        <path d="M0.044,2.256 C0.044,2.999 8.104,3.599 18.044,3.599 C27.986,3.599 36.044,2.999 36.044,2.256 C36.044,1.515 27.986,0.913 18.044,0.913 C8.104,0.913 0.044,1.515 0.044,2.256 Z" id="path-55"></path>
        <path d="M1.445,0.913 C0.906,0.913 0.521,1.436 0.681,1.951 L1.303,3.951 C1.408,4.285 1.716,4.514 2.066,4.514 L28.643,4.514 C28.97,4.514 29.264,4.314 29.386,4.011 L30.187,2.01 C30.398,1.485 30.012,0.913 29.445,0.913 L1.445,0.913 Z M28.701,1.416 L28.904,1.714 L28.582,1.714 L28.701,1.416 Z M2.209,1.475 L2.283,1.714 L2.032,1.714 L2.209,1.475 Z M29.244,2.215 L29.445,2.513 L29.124,2.513 L29.244,2.215 Z M1.619,2.275 L1.693,2.513 L1.445,2.513 L1.619,2.275 Z" id="path-57"></path>
        <path d="M0.445,24.714 L50.444,24.714 L50.444,0.714 L0.445,0.714 L0.445,24.714 Z M11.445,11.714 L39.445,11.714 L38.643,13.714 L12.066,13.714 L11.445,11.714 Z" id="path-59"></path>
        <path d="M8.727,13.617 C5.824,17.243 3.23,19.457 0.945,20.259 L11.165,20.259 L15.665,0.559 C13.942,5.638 11.629,9.99 8.727,13.617 Z" id="path-61"></path>
        <path d="M79.386,0.113 L75.69,0.113 L75.69,2.153 C75.69,2.635 75.311,3.027 74.849,3.027 L50.976,3.027 C50.512,3.027 50.133,2.635 50.133,2.153 L50.133,0.113 L1.687,0.113 C1.224,0.113 0.844,0.508 0.844,0.987 L0.844,5.942 C0.844,6.423 1.224,6.816 1.687,6.816 L84.183,6.816 L125.849,6.816 L127.544,4.886 L127.544,0.113 L79.386,0.113 Z" id="path-63"></path>
        <path d="M2.392,0.113 C1.54,0.113 0.844,0.835 0.844,1.719 L0.844,41.977 C11.49,46.648 27.482,48.208 44.734,45.435 C51.239,44.389 57.373,42.814 62.945,40.845 C64.685,40.229 77.982,33.809 79.802,32.577 C84.351,29.509 87.909,26.126 90.207,22.619 L91.555,20.256 C92.961,17.361 93.504,14.413 93.013,11.511 C92.924,10.989 92.794,0.965 92.644,0.461 C92.38,0.246 92.053,0.113 91.694,0.113 L2.392,0.113 Z" id="path-65"></path>
        <path d="M1.844,0.113 C1.295,0.113 0.844,0.563 0.844,1.113 L0.844,2.601 C0.844,3.151 1.295,3.601 1.844,3.601 L34.359,3.601 C34.909,3.601 35.358,3.151 35.358,2.601 L35.358,1.113 C35.358,0.563 34.909,0.113 34.359,0.113 L1.844,0.113 Z" id="path-67"></path>
        <path d="M1.796,0.113 C1.273,0.113 0.844,0.54 0.844,1.064 C0.844,1.587 1.273,2.015 1.796,2.015 L23.101,2.015 C23.624,2.015 24.053,1.587 24.053,1.064 C24.053,0.54 23.624,0.113 23.101,0.113 L1.796,0.113 Z" id="path-69"></path>
        <path d="M1.058,0.113 C0.938,0.113 0.844,0.22 0.844,0.353 C0.844,0.484 0.938,0.59 1.058,0.59 L33.431,0.59 C33.548,0.59 33.644,0.484 33.644,0.353 C33.644,0.22 33.548,0.113 33.431,0.113 L1.058,0.113 Z" id="path-71"></path>
        <path d="M1.058,0.113 C0.938,0.113 0.844,0.22 0.844,0.352 C0.844,0.484 0.938,0.591 1.058,0.591 L33.431,0.591 C33.548,0.591 33.644,0.484 33.644,0.352 C33.644,0.22 33.548,0.113 33.431,0.113 L1.058,0.113 Z" id="path-73"></path>
        <path d="M1.058,0.113 C0.938,0.113 0.844,0.22 0.844,0.352 C0.844,0.483 0.938,0.59 1.058,0.59 L33.431,0.59 C33.548,0.59 33.644,0.483 33.644,0.352 C33.644,0.22 33.548,0.113 33.431,0.113 L1.058,0.113 Z" id="path-75"></path>
        <path d="M1.058,0.113 C0.938,0.113 0.844,0.221 0.844,0.352 C0.844,0.484 0.938,0.59 1.058,0.59 L33.431,0.59 C33.548,0.59 33.644,0.484 33.644,0.352 C33.644,0.221 33.548,0.113 33.431,0.113 L1.058,0.113 Z" id="path-77"></path>
        <polygon id="path-79" points="5.38 0.113 0.844 3.079 135.244 3.079 130.808 0.113"></polygon>
        <path d="M7.025,2.367 C5.867,-0.825 0.044,-0.317 0.044,4.521 C0.046,6.932 1.826,10.127 7.026,13.368 C12.224,10.068 14.004,6.851 14.003,4.44 C14.003,1.65 12.045,0.313 10.174,0.313 C8.82,0.313 7.513,1.012 7.025,2.367 Z" id="path-81"></path>
        <path d="M0.045,1.657 C0.045,2.398 4.546,3 10.097,3 C15.648,3 20.148,2.398 20.148,1.657 C20.148,0.915 15.648,0.313 10.097,0.313 C4.546,0.313 0.045,0.915 0.045,1.657 Z" id="path-83"></path>
        <path d="M4.976,0.313 C2.257,0.313 0.044,2.284 0.044,4.706 C0.044,7.13 2.257,9.101 4.976,9.101 L6.98,9.101 L7.183,5.958 L7.183,5.218 C7.183,12.212 13.607,17.935 21.457,17.935 C29.308,17.935 35.732,12.212 35.732,5.218 C35.732,5.218 35.796,2.13 35.732,1.631 C35.668,0.88 35.528,0.313 35.528,0.313 L4.976,0.313 Z" id="path-85"></path>
        <path d="M3.024,1.061 C2.531,-0.102 0.044,0.084 0.044,1.846 C0.044,2.726 0.805,3.89 3.025,5.071 C5.243,3.868 6.003,2.696 6.003,1.818 C6.003,0.8 5.167,0.313 4.368,0.313 C3.79,0.313 3.232,0.568 3.024,1.061 Z" id="path-87"></path>
        <path d="M0.941,1.657 C0.941,2.398 5.441,3 10.991,3 C16.543,3 21.044,2.398 21.044,1.657 C21.044,0.914 16.543,0.313 10.991,0.313 C5.441,0.313 0.941,0.914 0.941,1.657 Z" id="path-89"></path>
        <path d="M0.56,0.313 C0.56,0.313 0.421,0.881 0.357,1.631 C0.293,2.129 0.357,5.218 0.357,5.218 C0.357,12.213 6.78,17.935 14.632,17.935 C22.482,17.935 28.906,12.213 28.906,5.218 L28.906,5.958 L29.108,9.102 L31.113,9.102 C33.832,9.102 36.044,7.13 36.044,4.706 C36.044,2.284 33.832,0.313 31.113,0.313 L0.56,0.313 Z" id="path-91"></path>
        <path d="M0.085,1.817 C0.085,2.696 0.845,3.868 3.064,5.071 C5.283,3.89 6.044,2.725 6.044,1.846 C6.044,0.084 3.559,-0.102 3.065,1.061 C2.857,0.568 2.298,0.313 1.72,0.313 C0.921,0.313 0.085,0.8 0.085,1.817 Z" id="path-93"></path>
        <path d="M0.445,23.213 C0.445,35.64 10.518,45.713 22.945,45.713 C35.37,45.713 45.445,35.64 45.445,23.213 C45.445,10.787 35.37,0.713 22.945,0.713 C10.518,0.713 0.445,10.787 0.445,23.213 Z" id="path-95"></path>
        <path d="M0.044,2.027 C-0.005,3.122 2.902,4.139 6.536,4.299 C10.169,4.46 13.154,3.702 13.202,2.607 C13.251,1.511 10.344,0.494 6.71,0.335 C6.38,0.32 6.057,0.313 5.74,0.313 C2.561,0.313 0.089,1.03 0.044,2.027 Z" id="path-97"></path>
        <path d="M0.044,2.027 C-0.005,3.122 2.902,4.139 6.537,4.299 C10.169,4.46 13.154,3.702 13.202,2.607 C13.252,1.511 10.344,0.494 6.71,0.335 C6.381,0.32 6.057,0.313 5.74,0.313 C2.56,0.313 0.088,1.03 0.044,2.027 Z" id="path-99"></path>
        <path d="M0.045,2.538 C-0.044,3.959 5.257,5.279 11.884,5.487 C18.513,5.696 23.956,4.713 24.044,3.291 C24.132,1.869 18.83,0.548 12.204,0.341 C11.607,0.322 11.019,0.313 10.444,0.313 C4.639,0.313 0.125,1.244 0.045,2.538 Z" id="path-101"></path>
        <path d="M0.945,3.038 C0.856,4.46 6.157,5.779 12.784,5.987 C19.413,6.196 24.856,5.212 24.943,3.791 C25.033,2.369 19.73,1.049 13.104,0.842 C12.504,0.823 11.915,0.814 11.338,0.814 C5.535,0.814 1.024,1.744 0.945,3.038 Z" id="path-103"></path>
        <path d="M0.58,5.262 C0.58,7.981 3.371,10.184 6.814,10.184 C10.257,10.184 13.047,7.981 13.047,5.262 C13.047,2.544 10.257,0.34 6.814,0.34 C3.371,0.34 0.58,2.544 0.58,5.262 Z" id="path-105"></path>
        <path d="M0.589,2.466 L0.589,0.777 L0.589,2.466 Z" id="path-107"></path>
        <path d="M0.038,2.466 L0.038,0.777 L0.038,2.466 Z" id="path-109"></path>
        <path d="M0.777,2.016 C0.589,2.888 1.062,3.719 1.833,3.87 C2.602,4.02 3.376,3.436 3.564,2.564 C3.751,1.692 3.279,0.862 2.509,0.712 C2.427,0.696 2.345,0.688 2.264,0.688 C1.58,0.688 0.943,1.237 0.777,2.016 Z" id="path-111"></path>
        <path d="M1.198,0.699 C0.421,0.817 -0.09,1.624 0.056,2.505 C0.203,3.385 0.951,4 1.726,3.883 C2.502,3.765 3.013,2.956 2.867,2.077 C2.732,1.27 2.092,0.684 1.39,0.685 C1.326,0.685 1.262,0.689 1.198,0.699 Z" id="path-113"></path>
        <path d="M0.342,15.162 C0.342,15.162 9.107,19.535 20.506,15.471 C20.506,15.471 20.174,1.817 20.257,1.36 C19.902,1.434 9.548,3.549 0.661,0.974 L0.342,15.162 Z M20.257,1.36 C20.263,1.359 20.266,1.358 20.266,1.358 C20.264,1.351 20.263,1.348 20.261,1.348 C20.26,1.348 20.258,1.352 20.257,1.36 Z" id="path-115"></path>
        <polygon id="path-117" points="0.146 1.358 0.146 16.782 3.667 14.931 3.667 0.434"></polygon>
        <polygon id="path-119" points="0.463 0.976 2.223 0.976 2.223 15.473 0.463 15.473"></polygon>
        <polygon id="path-121" points="0.344 0.976 1.224 0.976 1.224 15.473 0.344 15.473"></polygon>
        <path d="M0.506,15.162 C0.506,15.162 9.27,19.535 20.669,15.471 C20.669,15.471 20.337,1.817 20.42,1.36 C20.065,1.434 9.71,3.549 0.825,0.974 L0.506,15.162 Z M20.42,1.36 C20.427,1.359 20.43,1.358 20.43,1.358 C20.428,1.351 20.427,1.348 20.425,1.348 C20.423,1.348 20.422,1.352 20.42,1.36 Z" id="path-123"></path>
        <polygon id="path-125" points="0.308 1.358 0.308 16.782 3.829 14.931 3.829 0.434"></polygon>
        <polygon id="path-127" points="0.626 0.976 2.387 0.976 2.387 15.473 0.626 15.473"></polygon>
    </defs>
    <g id="flourishes/large/life/important-info-income-protection-360x140" stroke="none" stroke-width="1" fill="none" fill-rule="evenodd">
        <g id="Page-1" transform="translate(15.000000, 18.000000)">
            <g id="Group-3" transform="translate(87.000000, 31.186000)">
                <mask id="mask-2" fill="white">
                    <use xlink:href="#path-1"></use>
                </mask>
                <g id="Clip-2"></g>
                <polygon id="Fill-1" fill="#6FB443" mask="url(#mask-2)" points="-4.86 7.985 7.713 7.985 7.713 -4.422 -4.86 -4.422"></polygon>
            </g>
            <g id="Group-12" transform="translate(43.000000, 12.186000)" stroke="#46626F" stroke-linecap="round" stroke-linejoin="round" stroke-width="1.6">
                <path d="M29.1517,31.8679 C32.0917,20.1529 37.7317,8.0489 50.2337,0.6449" id="Stroke-4"></path>
                <path d="M26.1077,56.2966 C26.1077,56.2966 25.6367,51.0676 26.6337,43.2416" id="Stroke-6"></path>
                <path d="M21.1165,56.5515 C21.1165,56.5515 22.7545,22.3525 0.7545,9.3225" id="Stroke-8"></path>
                <path d="M29.9408,56.0739 C29.9408,56.0739 31.2518,31.6919 54.2128,25.0989" id="Stroke-10"></path>
            </g>
            <g id="Group-15" transform="translate(50.000000, 48.186000)">
                <mask id="mask-4" fill="white">
                    <use xlink:href="#path-3"></use>
                </mask>
                <g id="Clip-14"></g>
                <polygon id="Fill-13" fill="#6FB443" mask="url(#mask-4)" points="-4.935 15.39 19.465 15.39 19.465 -4.069 -4.935 -4.069"></polygon>
            </g>
            <path d="M64.4652,58.4796 C61.2532,58.8796 54.5932,58.4316 50.0652,49.3706 C53.5292,48.6946 60.6352,48.6916 64.4652,58.4796 Z" id="Stroke-16" stroke="#46626F" stroke-width="1.2" stroke-linecap="round" stroke-linejoin="round"></path>
            <g id="Group-20" transform="translate(47.000000, 39.186000)">
                <mask id="mask-6" fill="white">
                    <use xlink:href="#path-5"></use>
                </mask>
                <g id="Clip-19"></g>
                <polygon id="Fill-18" fill="#6FB443" mask="url(#mask-6)" points="-4.301 13.952 20.269 13.952 20.269 -4.534 -4.301 -4.534"></polygon>
            </g>
            <path d="M62.2689,48.091 C59.0839,48.351 52.4489,47.783 47.6989,39.807 C51.1249,39.314 58.1919,39.504 62.2689,48.091 Z" id="Stroke-21" stroke="#46626F" stroke-width="1.2" stroke-linecap="round" stroke-linejoin="round"></path>
            <g id="Group-25" transform="translate(43.000000, 31.186000)">
                <mask id="mask-8" fill="white">
                    <use xlink:href="#path-7"></use>
                </mask>
                <g id="Clip-24"></g>
                <polygon id="Fill-23" fill="#6FB443" mask="url(#mask-8)" points="-4.246 11.125 19.81 11.125 19.81 -4.422 -4.246 -4.422"></polygon>
            </g>
            <path d="M57.8099,37.0939 C55.0049,37.5749 49.0169,37.7419 43.7539,32.1509 C46.7459,31.4719 53.0679,30.9809 57.8099,37.0939 Z" id="Stroke-26" stroke="#46626F" stroke-width="1.2" stroke-linecap="round" stroke-linejoin="round"></path>
            <g id="Group-30" transform="translate(37.000000, 24.186000)">
                <mask id="mask-10" fill="white">
                    <use xlink:href="#path-9"></use>
                </mask>
                <g id="Clip-29"></g>
                <polygon id="Fill-28" fill="#6FB443" mask="url(#mask-10)" points="-4.556 10.404 21.457 10.404 21.457 -4.522 -4.556 -4.522"></polygon>
            </g>
            <path d="M53.4564,29.0812 C50.4034,29.8112 43.7994,30.5132 37.4434,25.4142 C40.6854,24.4692 47.6284,23.4152 53.4564,29.0812 Z" id="Stroke-31" stroke="#46626F" stroke-width="1.2" stroke-linecap="round" stroke-linejoin="round"></path>
            <g id="Group-35" transform="translate(50.000000, 12.186000)">
                <mask id="mask-12" fill="white">
                    <use xlink:href="#path-11"></use>
                </mask>
                <g id="Clip-34"></g>
                <polygon id="Fill-33" fill="#6FB443" mask="url(#mask-12)" points="-4.935 21.934 9.419 21.934 9.419 -4.355 -4.935 -4.355"></polygon>
            </g>
            <g id="Group-40" transform="translate(50.000000, 12.186000)" stroke="#46626F" stroke-linecap="round" stroke-linejoin="round" stroke-width="1.2">
                <path d="M1.8138,0.6452 C3.4208,3.3292 6.0538,9.3892 3.0398,16.9342 C1.1708,14.1372 -1.8992,7.8592 1.8138,0.6452 Z" id="Stroke-36"></path>
                <path d="M10.7679,10.9001 C11.9979,13.7731 13.7869,20.1311 9.7789,27.2051 C8.3059,24.1821 6.1119,17.5511 10.7679,10.9001 Z" id="Stroke-38"></path>
            </g>
            <g id="Group-43" transform="translate(57.000000, 22.186000)">
                <mask id="mask-14" fill="white">
                    <use xlink:href="#path-13"></use>
                </mask>
                <g id="Clip-42"></g>
                <polygon id="Fill-41" fill="#6FB443" mask="url(#mask-14)" points="-4.047 22.205 10.248 22.205 10.248 -4.1 -4.047 -4.1"></polygon>
            </g>
            <path d="M60.7679,23.0861 C61.9979,25.9591 63.7869,32.3171 59.7789,39.3911 C58.3059,36.3681 56.1119,29.7371 60.7679,23.0861 Z" id="Stroke-44" stroke="#46626F" stroke-width="1.2" stroke-linecap="round" stroke-linejoin="round"></path>
            <g id="Group-48" transform="translate(62.000000, 33.186000)">
                <mask id="mask-16" fill="white">
                    <use xlink:href="#path-15"></use>
                </mask>
                <g id="Clip-47"></g>
                <polygon id="Fill-46" fill="#6FB443" mask="url(#mask-16)" points="-4.313 20.537 11.611 20.537 11.611 -4.845 -4.313 -4.845"></polygon>
            </g>
            <path d="M68.4818,33.341 C68.8568,36.442 68.7888,43.043 62.9528,48.723 C62.3858,45.412 62.1428,38.436 68.4818,33.341 Z" id="Stroke-49" stroke="#46626F" stroke-width="1.2" stroke-linecap="round" stroke-linejoin="round"></path>
            <g id="Group-53" transform="translate(64.000000, 44.186000)">
                <mask id="mask-18" fill="white">
                    <use xlink:href="#path-17"></use>
                </mask>
                <g id="Clip-52"></g>
                <polygon id="Fill-51" fill="#6FB443" mask="url(#mask-18)" points="-4.736 20.208 13.872 20.208 13.872 -4.801 -4.736 -4.801"></polygon>
            </g>
            <path d="M72.6195,44.3849 C73.2585,47.5329 73.3245,54.1669 64.7455,59.3939 C63.8155,56.0189 63.2725,48.9819 72.6195,44.3849 Z" id="Stroke-54" stroke="#46626F" stroke-width="1.2" stroke-linecap="round" stroke-linejoin="round"></path>
            <g id="Group-58" transform="translate(30.000000, 17.186000)">
                <mask id="mask-20" fill="white">
                    <use xlink:href="#path-19"></use>
                </mask>
                <g id="Clip-57"></g>
                <polygon id="Fill-56" fill="#6FB443" mask="url(#mask-20)" points="-4.656 9.689 19.473 9.689 19.473 -4.622 -4.656 -4.622"></polygon>
            </g>
            <path d="M44.473,21.4064 C41.785,22.0644 35.968,22.7134 30.344,18.2494 C33.197,17.4024 39.31,16.4414 44.473,21.4064 Z" id="Stroke-59" stroke="#46626F" stroke-width="1.2" stroke-linecap="round" stroke-linejoin="round"></path>
            <g id="Group-63" transform="translate(42.000000, 7.186000)">
                <mask id="mask-22" fill="white">
                    <use xlink:href="#path-21"></use>
                </mask>
                <g id="Clip-62"></g>
                <polygon id="Fill-61" fill="#6FB443" mask="url(#mask-22)" points="-4.823 19.213 9.504 19.213 9.504 -4.876 -4.823 -4.876"></polygon>
            </g>
            <path d="M43.0023,7.3097 C44.7203,9.4667 47.7263,14.4587 45.9743,21.3987 C44.0153,19.1697 40.5993,14.0387 43.0023,7.3097 Z" id="Stroke-64" stroke="#46626F" stroke-width="1.2" stroke-linecap="round" stroke-linejoin="round"></path>
            <g id="Group-68" transform="translate(74.000000, 39.186000)">
                <mask id="mask-24" fill="white">
                    <use xlink:href="#path-23"></use>
                </mask>
                <g id="Clip-67"></g>
                <polygon id="Fill-66" fill="#6FB443" mask="url(#mask-24)" points="-4.481 22.719 10.386 22.719 10.386 -4.535 -4.481 -4.535"></polygon>
            </g>
            <path d="M78.4349,39.6515 C79.4629,42.8275 80.7439,49.7665 75.7869,56.9055 C74.5139,53.5475 72.8299,46.2775 78.4349,39.6515 Z" id="Stroke-69" stroke="#46626F" stroke-width="1.2" stroke-linecap="round" stroke-linejoin="round"></path>
            <g id="Group-73" transform="translate(78.000000, 8.186000)">
                <mask id="mask-26" fill="white">
                    <use xlink:href="#path-25"></use>
                </mask>
                <g id="Clip-72"></g>
                <polygon id="Fill-71" fill="#6FB443" mask="url(#mask-26)" points="-4.538 22.956 10.33 22.956 10.33 -4.298 -4.538 -4.298"></polygon>
            </g>
            <path d="M82.3802,8.8878 C83.4072,12.0638 84.6882,19.0018 79.7302,26.1418 C78.4582,22.7838 76.7752,15.5128 82.3802,8.8878 Z" id="Stroke-74" stroke="#46626F" stroke-width="1.2" stroke-linecap="round" stroke-linejoin="round"></path>
            <g id="Group-78" transform="translate(69.000000, 15.186000)">
                <mask id="mask-28" fill="white">
                    <use xlink:href="#path-27"></use>
                </mask>
                <g id="Clip-77"></g>
                <polygon id="Fill-76" fill="#6FB443" mask="url(#mask-28)" points="-4.215 20.873 12.855 20.873 12.855 -4.987 -4.215 -4.987"></polygon>
            </g>
            <path d="M70.7952,15.1984 C73.5902,16.7334 78.5582,20.9704 76.2712,31.0584 C73.0982,29.6024 67.4872,25.4774 70.7952,15.1984 Z" id="Stroke-79" stroke="#46626F" stroke-width="1.2" stroke-linecap="round" stroke-linejoin="round"></path>
            <g id="Group-83" transform="translate(87.000000, 15.186000)">
                <mask id="mask-30" fill="white">
                    <use xlink:href="#path-29"></use>
                </mask>
                <g id="Clip-82"></g>
                <polygon id="Fill-81" fill="#6FB443" mask="url(#mask-30)" points="-4.86 10.916 18.212 10.916 18.212 -4.199 -4.86 -4.199"></polygon>
            </g>
            <path d="M87.14,17.5646 C89.211,16.1816 93.951,14.2256 100.212,19.1266 C98.063,20.7926 93.173,23.2216 87.14,17.5646 Z" id="Stroke-84" stroke="#46626F" stroke-width="1.2" stroke-linecap="round" stroke-linejoin="round"></path>
            <g id="Group-88" transform="translate(80.000000, 22.186000)">
                <mask id="mask-32" fill="white">
                    <use xlink:href="#path-31"></use>
                </mask>
                <g id="Clip-87"></g>
                <polygon id="Fill-86" fill="#6FB443" mask="url(#mask-32)" points="-4.171 9.431 19.1 9.431 19.1 -4.888 -4.171 -4.888"></polygon>
            </g>
            <g id="Group-93" transform="translate(80.000000, 22.186000)" stroke="#46626F" stroke-linecap="round" stroke-linejoin="round" stroke-width="1.2">
                <path d="M0.8294,1.7116 C3.0054,0.4286 7.9294,-1.4684 14.1004,2.4786 C11.8314,4.0086 6.7314,6.3186 0.8294,1.7116 Z" id="Stroke-89"></path>
                <path d="M9.4036,11.155 C8.7556,11.474 8.0076,11.748 7.1396,11.913" id="Stroke-91"></path>
            </g>
            <g id="Group-96" transform="translate(76.000000, 28.186000)">
                <mask id="mask-34" fill="white">
                    <use xlink:href="#path-33"></use>
                </mask>
                <g id="Clip-95"></g>
                <polygon id="Fill-94" fill="#6FB443" mask="url(#mask-34)" points="-4.03 11.388 18.88 11.388 18.88 -4.153 -4.03 -4.153"></polygon>
            </g>
            <g id="Group-101" transform="translate(0.000000, 28.186000)" stroke="#46626F">
                <path d="M82.4642,6.3884 C80.7752,5.8394 78.9282,4.7094 76.9702,2.7084 C78.5912,1.5264 81.7302,-0.0166 85.9022,1.4394 C86.1932,1.5394 86.4872,1.6564 86.7882,1.7864 C87.7692,2.2164 88.8012,2.8124 89.8802,3.6164" id="Stroke-97" stroke-width="1.2" stroke-linecap="round" stroke-linejoin="round"></path>
                <path d="M0.0443,65.5378 C54.8483,62.5168 94.6543,60.3118 119.4643,58.9258 C202.5683,54.2798 272.6503,53.3588 329.4233,65.5378" id="Stroke-99" stroke-width="1.6"></path>
            </g>
            <g id="Group-104" transform="translate(85.000000, 0.186000)">
                <mask id="mask-36" fill="white">
                    <use xlink:href="#path-35"></use>
                </mask>
                <g id="Clip-103"></g>
                <polygon id="Fill-102" fill="#6FB443" mask="url(#mask-36)" points="-4.438 22.729 11.021 22.729 11.021 -4.187 -4.438 -4.187"></polygon>
            </g>
            <path d="M90.5736,0.9992 C91.2846,4.2592 91.8806,11.2892 86.2496,17.9152 C85.3116,14.4502 84.3446,7.0532 90.5736,0.9992 Z" id="Stroke-105" stroke="#46626F" stroke-width="1.2" stroke-linecap="round" stroke-linejoin="round"></path>
            <g id="Group-109" transform="translate(88.000000, 25.186000)">
                <mask id="mask-38" fill="white">
                    <use xlink:href="#path-37"></use>
                </mask>
                <g id="Clip-108"></g>
                <polygon id="Fill-107" fill="#6FB443" mask="url(#mask-38)" points="-4.282 20.963 13.433 20.963 13.433 -4.732 -4.282 -4.732"></polygon>
            </g>
            <path d="M96.432,25.4533 C96.466,28.7893 95.617,35.7933 88.752,41.1483 C88.54,37.5663 89.101,30.1273 96.432,25.4533 Z" id="Stroke-110" stroke="#46626F" stroke-width="1.2" stroke-linecap="round" stroke-linejoin="round"></path>
            <g id="Group-114" transform="translate(96.000000, 26.186000)">
                <mask id="mask-40" fill="white">
                    <use xlink:href="#path-39"></use>
                </mask>
                <g id="Clip-113"></g>
                <polygon id="Fill-112" fill="#6FB443" mask="url(#mask-40)" points="-4.394 15.875 16.356 15.875 16.356 -4.944 -4.394 -4.944"></polygon>
            </g>
            <path d="M107.3558,26.2414 C106.4458,29.0044 103.7768,34.5474 96.6058,37.0604 C97.4388,34.0464 99.9928,28.0624 107.3558,26.2414 Z" id="Stroke-115" stroke="#46626F" stroke-width="1.2" stroke-linecap="round" stroke-linejoin="round"></path>
            <g id="Group-119" transform="translate(79.000000, 49.186000)">
                <mask id="mask-42" fill="white">
                    <use xlink:href="#path-41"></use>
                </mask>
                <g id="Clip-118"></g>
                <polygon id="Fill-117" fill="#6FB443" mask="url(#mask-42)" points="-4.749 10.521 22.153 10.521 22.153 -4.28 -4.749 -4.28"></polygon>
            </g>
            <path d="M96.1536,53.881 C93.0166,54.826 86.1826,55.955 79.2516,51.028 C82.5696,49.85 89.7376,48.333 96.1536,53.881 Z" id="Stroke-120" stroke="#46626F" stroke-width="1.2" stroke-linecap="round" stroke-linejoin="round"></path>
            <g id="Group-124" transform="translate(85.000000, 42.186000)">
                <mask id="mask-44" fill="white">
                    <use xlink:href="#path-43"></use>
                </mask>
                <g id="Clip-123"></g>
                <polygon id="Fill-122" fill="#6FB443" mask="url(#mask-44)" points="-4.438 10.326 21.968 10.326 21.968 -4.379 -4.438 -4.379"></polygon>
            </g>
            <path d="M101.9681,46.3615 C99.0181,47.4845 92.5291,48.9805 85.5621,44.2925 C88.6731,42.9225 95.4531,41.0125 101.9681,46.3615 Z" id="Stroke-125" stroke="#46626F" stroke-width="1.2" stroke-linecap="round" stroke-linejoin="round"></path>
            <g id="Group-129" transform="translate(96.000000, 36.186000)">
                <mask id="mask-46" fill="white">
                    <use xlink:href="#path-45"></use>
                </mask>
                <g id="Clip-128"></g>
                <polygon id="Fill-127" fill="#6FB443" mask="url(#mask-46)" points="-4.394 10.058 22.159 10.058 22.159 -4.69 -4.394 -4.69"></polygon>
            </g>
            <path d="M113.1585,40.0832 C110.1825,41.2172 103.6365,42.7262 96.6055,37.9952 C99.7435,36.6122 106.5865,34.6862 113.1585,40.0832 Z" id="Stroke-130" stroke="#46626F" stroke-width="1.2" stroke-linecap="round" stroke-linejoin="round"></path>
            <g id="Group-134" transform="translate(92.000000, 1.186000)">
                <mask id="mask-48" fill="white">
                    <use xlink:href="#path-47"></use>
                </mask>
                <g id="Clip-133"></g>
                <polygon id="Fill-132" fill="#6FB443" mask="url(#mask-48)" points="-4.339 16.269 16.262 16.269 16.262 -4.398 -4.339 -4.398"></polygon>
            </g>
            <path d="M103.262,1.7882 C102.365,4.5122 99.732,9.9782 92.661,12.4552 C93.483,9.4832 96.001,3.5832 103.262,1.7882 Z" id="Stroke-135" stroke="#46626F" stroke-width="1.2" stroke-linecap="round" stroke-linejoin="round"></path>
            <g id="Group-139" transform="translate(92.000000, 11.186000)">
                <mask id="mask-50" fill="white">
                    <use xlink:href="#path-49"></use>
                </mask>
                <g id="Clip-138"></g>
                <polygon id="Fill-137" fill="#6FB443" mask="url(#mask-50)" points="-4.339 10.538 21.983 10.538 21.983 -4.143 -4.339 -4.143"></polygon>
            </g>
            <path d="M108.9837,15.5792 C106.0487,16.6972 99.5937,18.1852 92.6617,13.5202 C95.7547,12.1562 102.5037,10.2582 108.9837,15.5792 Z" id="Stroke-140" stroke="#46626F" stroke-width="1.2" stroke-linecap="round" stroke-linejoin="round"></path>
            <g id="Group-144" transform="translate(81.000000, 29.186000)">
                <mask id="mask-52" fill="white">
                    <use xlink:href="#path-51"></use>
                </mask>
                <g id="Clip-143"></g>
                <polygon id="Fill-142" fill="#6FB443" mask="url(#mask-52)" points="-4.382 22.128 11.077 22.128 11.077 -4.789 -4.382 -4.789"></polygon>
            </g>
            <path d="M86.6292,29.3966 C87.3412,32.6586 87.9372,39.6876 82.3042,46.3136 C81.3672,42.8486 80.4012,35.4506 86.6292,29.3966 Z" id="Stroke-145" stroke="#46626F" stroke-width="1.2" stroke-linecap="round" stroke-linejoin="round"></path>
            <g id="Group-149" transform="translate(51.000000, 67.186000)">
                <mask id="mask-54" fill="white">
                    <use xlink:href="#path-53"></use>
                </mask>
                <g id="Clip-148"></g>
                <polygon id="Fill-147" fill="#D2D9DC" mask="url(#mask-54)" points="-4.209 30.081 38.795 30.081 38.795 -4.567 -4.209 -4.567"></polygon>
            </g>
            <path d="M51.7913,67.6183 C58.9943,68.6123 64.4953,69.1093 68.2933,69.1093 C72.0923,69.1093 77.5933,68.6123 84.7953,67.6183 L79.0703,92.2663 L58.5123,92.2663 L51.7913,67.6183 Z" id="Stroke-150" stroke="#46626F" stroke-width="1.6" stroke-linejoin="round"></path>
            <g id="Group-154" transform="translate(50.000000, 91.186000)">
                <mask id="mask-56" fill="white">
                    <use xlink:href="#path-55"></use>
                </mask>
                <g id="Clip-153"></g>
                <polygon id="Fill-152" fill="#CFD8D7" mask="url(#mask-56)" points="-4.956 8.599 41.044 8.599 41.044 -4.088 -4.956 -4.088"></polygon>
            </g>
            <g id="Group-157" transform="translate(53.000000, 88.186000)">
                <mask id="mask-58" fill="white">
                    <use xlink:href="#path-57"></use>
                </mask>
                <g id="Clip-156"></g>
                <polygon id="Fill-155" fill="#D2D9DC" mask="url(#mask-58)" points="-3.555 8.714 34.445 8.714 34.445 -3.286 -3.555 -3.286"></polygon>
            </g>
            <g id="Group-160" transform="translate(43.000000, 78.186000)">
                <mask id="mask-60" fill="white">
                    <use xlink:href="#path-59"></use>
                </mask>
                <g id="Clip-159"></g>
                <polygon id="Stroke-158" stroke="#46626F" stroke-width="3.2" stroke-linecap="round" stroke-linejoin="round" mask="url(#mask-60)" points="11.4447 11.7136 39.4447 11.7136 38.6427 13.7136 12.0667 13.7136"></polygon>
            </g>
            <g id="Group-163" transform="translate(68.000000, 68.186000)">
                <mask id="mask-62" fill="white">
                    <use xlink:href="#path-61"></use>
                </mask>
                <g id="Clip-162"></g>
                <polygon id="Fill-161" fill="#A1B3B7" mask="url(#mask-62)" points="-4.055 25.258 20.666 25.258 20.666 -4.442 -4.055 -4.442"></polygon>
            </g>
            <g id="Group-168" transform="translate(163.000000, 15.186000)" stroke="#46626F" stroke-linecap="round" stroke-linejoin="round">
                <path d="M0.8441,64.695 L0.8441,5.189 C0.8441,2.397 3.0441,0.113 5.7361,0.113 L95.0921,0.113 C97.7821,0.113 99.9841,2.397 99.9841,5.189 L99.9841,17.807 L99.9841,64.695" id="Stroke-164" stroke-width="1.6"></path>
                <path d="M50.8099,2.1335 C50.8099,2.6955 50.3709,3.1535 49.8279,3.1535 C49.2849,3.1535 48.8439,2.6955 48.8439,2.1335 C48.8439,1.5705 49.2849,1.1125 49.8279,1.1125 C50.3709,1.1125 50.8099,1.5705 50.8099,2.1335 Z" id="Stroke-166" stroke-width="1.2"></path>
            </g>
            <g id="Group-171" transform="translate(150.000000, 80.186000)">
                <mask id="mask-64" fill="white">
                    <use xlink:href="#path-63"></use>
                </mask>
                <g id="Clip-170"></g>
                <polygon id="Fill-169" fill="#FFFFFF" mask="url(#mask-64)" points="-4.156 11.816 132.544 11.816 132.544 -4.887 -4.156 -4.887"></polygon>
            </g>
            <path d="M229.3861,80.299 L225.6911,80.299 L225.6911,82.339 C225.6911,82.82 225.3121,83.213 224.8491,83.213 L200.9761,83.213 C200.5121,83.213 200.1331,82.82 200.1331,82.339 L200.1331,80.299 L151.6871,80.299 C151.2241,80.299 150.8441,80.694 150.8441,81.173 L150.8441,86.128 C150.8441,86.61 151.2241,87.002 151.6871,87.002 L234.1831,87.002 L275.8491,87.002 L277.5441,85.072 L277.5441,80.299 L229.3861,80.299 Z" id="Stroke-172" stroke="#46626F" stroke-width="1.6" stroke-linecap="round" stroke-linejoin="round"></path>
            <g id="Group-176" transform="translate(166.000000, 18.186000)">
                <mask id="mask-66" fill="white">
                    <use xlink:href="#path-65"></use>
                </mask>
                <g id="Clip-175" opacity="0.2"></g>
                <polygon id="Fill-174" fill="#D2D9DC" opacity="0.2" mask="url(#mask-66)" points="-4.156 51.809 98.191 51.809 98.191 -4.887 -4.156 -4.887"></polygon>
            </g>
            <g id="Group-185" transform="translate(155.000000, 18.186000)" stroke-linecap="round" stroke-linejoin="round">
                <path d="M72.9183,59.279 L13.3923,59.279 C12.5403,59.279 11.8443,58.556 11.8443,57.674 L11.8443,1.72 C11.8443,0.837 12.5403,0.113 13.3923,0.113 L102.6943,0.113 C103.5463,0.113 104.2423,0.837 104.2423,1.72 L104.2423,7.784 L104.2423,59.279 L72.9183,59.279 Z" id="Stroke-177" stroke="#46626F" stroke-width="1.2"></path>
                <path d="M15.8441,22.113 L15.8441,23.892" id="Stroke-179" stroke="#D2D9DC"></path>
                <polyline id="Stroke-181" stroke="#D2D9DC" points="27.9251 4.113 15.8441 4.113 15.8441 19.645"></polyline>
                <path d="M0.8441,65.113 L2.7981,65.113" id="Stroke-183" stroke="#46626F" stroke-width="1.6"></path>
            </g>
            <g id="Group-188" transform="translate(206.000000, 33.186000)">
                <mask id="mask-68" fill="white">
                    <use xlink:href="#path-67"></use>
                </mask>
                <g id="Clip-187"></g>
                <polygon id="Fill-186" fill="#D2D9DC" mask="url(#mask-68)" points="-4.156 8.601 40.359 8.601 40.359 -4.887 -4.156 -4.887"></polygon>
            </g>
            <g id="Group-191" transform="translate(206.000000, 39.186000)">
                <mask id="mask-70" fill="white">
                    <use xlink:href="#path-69"></use>
                </mask>
                <g id="Clip-190"></g>
                <polygon id="Fill-189" fill="#D2D9DC" mask="url(#mask-70)" points="-4.156 7.015 29.053 7.015 29.053 -4.887 -4.156 -4.887"></polygon>
            </g>
            <g id="Group-194" transform="translate(191.000000, 57.186000)">
                <mask id="mask-72" fill="white">
                    <use xlink:href="#path-71"></use>
                </mask>
                <g id="Clip-193"></g>
                <polygon id="Fill-192" fill="#D3DADD" mask="url(#mask-72)" points="-4.156 5.591 38.644 5.591 38.644 -4.887 -4.156 -4.887"></polygon>
            </g>
            <g id="Group-197" transform="translate(191.000000, 51.186000)">
                <mask id="mask-74" fill="white">
                    <use xlink:href="#path-73"></use>
                </mask>
                <g id="Clip-196"></g>
                <polygon id="Fill-195" fill="#D3DADD" mask="url(#mask-74)" points="-4.156 5.591 38.644 5.591 38.644 -4.887 -4.156 -4.887"></polygon>
            </g>
            <g id="Group-200" transform="translate(191.000000, 49.186000)">
                <mask id="mask-76" fill="white">
                    <use xlink:href="#path-75"></use>
                </mask>
                <g id="Clip-199"></g>
                <polygon id="Fill-198" fill="#D3DADD" mask="url(#mask-76)" points="-4.156 5.591 38.644 5.591 38.644 -4.887 -4.156 -4.887"></polygon>
            </g>
            <g id="Group-203" transform="translate(191.000000, 54.186000)">
                <mask id="mask-78" fill="white">
                    <use xlink:href="#path-77"></use>
                </mask>
                <g id="Clip-202"></g>
                <polygon id="Fill-201" fill="#D3DADD" mask="url(#mask-78)" points="-4.156 5.591 38.644 5.591 38.644 -4.887 -4.156 -4.887"></polygon>
            </g>
            <g id="Group-206" transform="translate(145.000000, 88.186000)">
                <mask id="mask-80" fill="white">
                    <use xlink:href="#path-79"></use>
                </mask>
                <g id="Clip-205"></g>
                <polygon id="Fill-204" fill="#ECF1F3" mask="url(#mask-80)" points="-4.156 8.079 140.243 8.079 140.243 -4.887 -4.156 -4.887"></polygon>
            </g>
            <polygon id="Stroke-207" stroke="#ECF1F3" stroke-linecap="round" stroke-linejoin="round" points="150.3802 88.299 145.8442 91.265 280.2432 91.265 275.8082 88.299"></polygon>
            <g id="Group-211" transform="translate(186.000000, 31.186000)">
                <mask id="mask-82" fill="white">
                    <use xlink:href="#path-81"></use>
                </mask>
                <g id="Clip-210"></g>
                <polygon id="Fill-209" fill="#6FB443" mask="url(#mask-82)" points="-4.956 18.368 19.003 18.368 19.003 -4.687 -4.956 -4.687"></polygon>
            </g>
            <g id="Group-214" transform="translate(103.000000, 98.186000)">
                <mask id="mask-84" fill="white">
                    <use xlink:href="#path-83"></use>
                </mask>
                <g id="Clip-213"></g>
                <polygon id="Fill-212" fill="#CFD8D7" mask="url(#mask-84)" points="-4.956 8 25.148 8 25.148 -4.687 -4.956 -4.687"></polygon>
            </g>
            <g id="Group-217" transform="translate(92.000000, 81.186000)">
                <mask id="mask-86" fill="white">
                    <use xlink:href="#path-85"></use>
                </mask>
                <g id="Clip-216"></g>
                <polygon id="Fill-215" fill="#FFFFFF" mask="url(#mask-86)" points="-4.956 22.935 40.759 22.935 40.759 -4.687 -4.956 -4.687"></polygon>
            </g>
            <g id="Group-228" transform="translate(92.000000, 56.186000)" stroke-linecap="round" stroke-width="1.6">
                <path d="M6.9798,34.1013 L4.9758,34.1013 C2.2568,34.1013 0.0438,32.1293 0.0438,29.7053 C0.0438,27.2843 2.2568,25.3133 4.9758,25.3133 L35.5288,25.3133 C35.5288,25.3133 35.6668,25.8803 35.7318,26.6303 C35.7948,27.1293 35.7318,30.2183 35.7318,30.2183 C35.7318,37.2123 29.3078,42.9353 21.4568,42.9353 C13.6058,42.9353 7.1828,37.2123 7.1828,30.2183 L7.1828,30.9573" id="Stroke-218" stroke="#46626F" stroke-linejoin="round"></path>
                <path d="M6.5687,27.8132 L5.2377,27.8132 C4.0317,27.8132 3.0447,28.6922 3.0447,29.7672 C3.0447,30.8422 4.0317,31.7222 5.2377,31.7222 L6.5687,31.7222" id="Stroke-220" stroke="#46626F" stroke-linejoin="round"></path>
                <path d="M17.3275,0.3132 C16.9235,3.2292 16.7845,5.8812 18.0835,8.7202 C20.0135,12.9372 24.8615,18.7192 18.5775,22.3072" id="Stroke-222" stroke="#D2D9DC"></path>
                <path d="M22.0482,3.3132 C22.0202,4.7012 22.1632,6.0642 22.6242,7.4582 C22.7522,7.8432 22.9042,8.2322 23.0832,8.6242 C25.0132,12.8412 29.8612,18.6242 23.5762,22.2102" id="Stroke-224" stroke="#D2D9DC"></path>
                <path d="M13.0443,8.3132 C14.9743,12.5312 19.8213,18.3132 13.5383,21.9002" id="Stroke-226" stroke="#D2D9DC"></path>
            </g>
            <g id="Group-231" transform="translate(110.000000, 87.186000)">
                <mask id="mask-88" fill="white">
                    <use xlink:href="#path-87"></use>
                </mask>
                <g id="Clip-230"></g>
                <polygon id="Fill-229" fill="#6FB443" mask="url(#mask-88)" points="-4.956 10.071 11.003 10.071 11.003 -4.687 -4.956 -4.687"></polygon>
            </g>
            <g id="Group-234" transform="translate(123.000000, 101.186000)">
                <mask id="mask-90" fill="white">
                    <use xlink:href="#path-89"></use>
                </mask>
                <g id="Clip-233"></g>
                <polygon id="Fill-232" fill="#CFD8D7" mask="url(#mask-90)" points="-4.059 8 26.045 8 26.045 -4.687 -4.059 -4.687"></polygon>
            </g>
            <g id="Group-237" transform="translate(119.000000, 84.186000)">
                <mask id="mask-92" fill="white">
                    <use xlink:href="#path-91"></use>
                </mask>
                <g id="Clip-236"></g>
                <polygon id="Fill-235" fill="#FFFFFF" mask="url(#mask-92)" points="-4.671 22.935 41.044 22.935 41.044 -4.687 -4.671 -4.687"></polygon>
            </g>
            <g id="Group-248" transform="translate(119.000000, 59.186000)" stroke-linecap="round" stroke-width="1.6">
                <path d="M29.1087,34.1013 L31.1127,34.1013 C33.8317,34.1013 36.0447,32.1293 36.0447,29.7053 C36.0447,27.2843 33.8317,25.3133 31.1127,25.3133 L0.5597,25.3133 C0.5597,25.3133 0.4217,25.8803 0.3567,26.6303 C0.2937,27.1293 0.3567,30.2183 0.3567,30.2183 C0.3567,37.2123 6.7807,42.9353 14.6317,42.9353 C22.4827,42.9353 28.9057,37.2123 28.9057,30.2183 L28.9057,30.9573" id="Stroke-238" stroke="#46626F" stroke-linejoin="round"></path>
                <path d="M29.5199,27.8132 L30.8509,27.8132 C32.0569,27.8132 33.0439,28.6922 33.0439,29.7672 C33.0439,30.8422 32.0569,31.7222 30.8509,31.7222 L29.5199,31.7222" id="Stroke-240" stroke="#46626F" stroke-linejoin="round"></path>
                <path d="M18.7611,0.3132 C19.1651,3.2292 19.3041,5.8812 18.0051,8.7202 C16.0751,12.9372 11.2271,18.7192 17.5111,22.3072" id="Stroke-242" stroke="#D2D9DC"></path>
                <path d="M14.0404,3.3132 C14.0684,4.7012 13.9254,6.0642 13.4644,7.4582 C13.3364,7.8432 13.1844,8.2322 13.0054,8.6242 C11.0754,12.8412 6.2274,18.6242 12.5124,22.2102" id="Stroke-244" stroke="#D2D9DC"></path>
                <path d="M23.0443,8.3132 C21.1143,12.5312 16.2673,18.3132 22.5503,21.9002" id="Stroke-246" stroke="#D2D9DC"></path>
            </g>
            <g id="Group-251" transform="translate(131.000000, 90.186000)">
                <mask id="mask-94" fill="white">
                    <use xlink:href="#path-93"></use>
                </mask>
                <g id="Clip-250"></g>
                <polygon id="Fill-249" fill="#6FB443" mask="url(#mask-94)" points="-4.915 10.071 11.044 10.071 11.044 -4.687 -4.915 -4.687"></polygon>
            </g>
            <g id="Group-254" transform="translate(243.000000, 49.186000)">
                <mask id="mask-96" fill="white">
                    <use xlink:href="#path-95"></use>
                </mask>
                <g id="Clip-253"></g>
                <polygon id="Fill-252" fill="#FFFFFF" mask="url(#mask-96)" points="-4.555 50.714 50.445 50.714 50.445 -4.286 -4.555 -4.286"></polygon>
            </g>
            <g id="Group-257" transform="translate(248.000000, 97.186000)">
                <mask id="mask-98" fill="white">
                    <use xlink:href="#path-97"></use>
                </mask>
                <g id="Clip-256"></g>
                <polygon id="Fill-255" fill="#F1F3F3" mask="url(#mask-98)" points="-4.956 9.32 18.202 9.32 18.202 -4.687 -4.956 -4.687"></polygon>
            </g>
            <g id="Group-260" transform="translate(270.000000, 97.186000)">
                <mask id="mask-100" fill="white">
                    <use xlink:href="#path-99"></use>
                </mask>
                <g id="Clip-259"></g>
                <polygon id="Fill-258" fill="#F1F3F3" mask="url(#mask-100)" points="-4.956 9.32 18.202 9.32 18.202 -4.687 -4.956 -4.687"></polygon>
            </g>
            <g id="Group-263" transform="translate(277.000000, 98.186000)">
                <mask id="mask-102" fill="white">
                    <use xlink:href="#path-101"></use>
                </mask>
                <g id="Clip-262"></g>
                <polygon id="Fill-261" fill="#F1F3F3" mask="url(#mask-102)" points="-4.956 10.515 29.044 10.515 29.044 -4.687 -4.956 -4.687"></polygon>
            </g>
            <g id="Group-266" transform="translate(297.000000, 97.186000)">
                <mask id="mask-104" fill="white">
                    <use xlink:href="#path-103"></use>
                </mask>
                <g id="Clip-265"></g>
                <polygon id="Fill-264" fill="#F1F3F3" mask="url(#mask-104)" points="-4.055 11.015 29.945 11.015 29.945 -4.187 -4.055 -4.187"></polygon>
            </g>
            <g id="Group-281" transform="translate(242.000000, 49.186000)" stroke-linecap="round">
                <path d="M3.7689,11.485 C1.5889,14.896 0.3309,18.907 0.3309,23.199 C0.3309,30.297 3.7689,36.625 9.1359,40.743 C9.2789,40.852 9.4209,40.962 9.5679,41.066" id="Stroke-267" stroke="#46626F" stroke-width="1.6" stroke-linejoin="round"></path>
                <path d="M21.639,0.819 C16.719,1.252 12.24,3.135 8.669,6.021" id="Stroke-269" stroke="#46626F" stroke-width="1.6" stroke-linejoin="round"></path>
                <path d="M38.7503,5.8561 C35.1733,3.0301 30.7063,1.1991 25.8123,0.8031" id="Stroke-271" stroke="#46626F" stroke-width="1.6" stroke-linejoin="round"></path>
                <path d="M45.2484,32.3893 C46.5634,29.5833 47.2954,26.4733 47.2954,23.2003 C47.2954,19.0173 46.1024,15.1023 44.0244,11.7483" id="Stroke-273" stroke="#46626F" stroke-width="1.6" stroke-linejoin="round"></path>
                <path d="M27.3841,45.4157 C26.2201,45.5857 25.0291,45.6737 23.8141,45.6737 C22.4481,45.6737 21.1131,45.5617 19.8131,45.3497" id="Stroke-275" stroke="#46626F" stroke-width="1.6" stroke-linejoin="round"></path>
                <path d="M4.0482,23.1989 C4.0482,20.5919 4.6032,18.1039 5.6042,15.8439" id="Stroke-277" stroke="#D2D9DC" stroke-width="1.2"></path>
                <path d="M40.1985,12.6286 C42.3325,15.6496 43.5795,19.2866 43.5795,23.1986" id="Stroke-279" stroke="#D2D9DC" stroke-width="1.2"></path>
            </g>
            <g id="Group-284" transform="translate(259.000000, 73.186000)">
                <mask id="mask-106" fill="white">
                    <use xlink:href="#path-105"></use>
                </mask>
                <g id="Clip-283"></g>
                <polygon id="Fill-282" fill="#CBD532" mask="url(#mask-106)" points="-4.421 15.184 18.047 15.184 18.047 -4.66 -4.421 -4.66"></polygon>
            </g>
            <path d="M272.0472,78.4484 C272.0472,81.1674 269.2562,83.3704 265.8142,83.3704 C262.3702,83.3704 259.5792,81.1674 259.5792,78.4484 C259.5792,75.7304 262.3702,73.5264 265.8142,73.5264 C269.2562,73.5264 272.0472,75.7304 272.0472,78.4484 Z" id="Stroke-285" stroke="#46626F" stroke-width="1.6"></path>
            <g id="Group-289" transform="translate(264.000000, 77.186000)">
                <mask id="mask-108" fill="white">
                    <use xlink:href="#path-107"></use>
                </mask>
                <g id="Clip-288"></g>
                <polygon id="Fill-287" fill="#CBD532" mask="url(#mask-108)" points="-4.411 7.466 5.589 7.466 5.589 -4.222 -4.411 -4.222"></polygon>
            </g>
            <path d="M264.5892,77.963 L264.5892,79.651" id="Stroke-290" stroke="#46626F" stroke-width="1.6"></path>
            <g id="Group-294" transform="translate(267.000000, 77.186000)">
                <mask id="mask-110" fill="white">
                    <use xlink:href="#path-109"></use>
                </mask>
                <g id="Clip-293"></g>
                <polygon id="Fill-292" fill="#CBD532" mask="url(#mask-110)" points="-4.962 7.466 5.038 7.466 5.038 -4.222 -4.962 -4.222"></polygon>
            </g>
            <path d="M267.0384,77.963 L267.0384,79.651" id="Stroke-295" stroke="#46626F" stroke-width="1.6"></path>
            <g id="Group-299" transform="translate(259.000000, 65.186000)">
                <mask id="mask-112" fill="white">
                    <use xlink:href="#path-111"></use>
                </mask>
                <g id="Clip-298"></g>
                <polygon id="Fill-297" fill="#46626F" mask="url(#mask-112)" points="-4.264 8.893 8.605 8.893 8.605 -4.313 -4.264 -4.313"></polygon>
            </g>
            <g id="Group-302" transform="translate(269.000000, 65.186000)">
                <mask id="mask-114" fill="white">
                    <use xlink:href="#path-113"></use>
                </mask>
                <g id="Clip-301"></g>
                <polygon id="Fill-300" fill="#46626F" mask="url(#mask-114)" points="-4.968 8.897 7.892 8.897 7.892 -4.316 -4.968 -4.316"></polygon>
            </g>
            <g id="Group-321" transform="translate(232.000000, 49.186000)" stroke="#46626F" stroke-linecap="round" stroke-linejoin="round">
                <path d="M29.5384,45.3679 L28.8604,49.2249 C28.8084,49.6199 28.4244,49.8999 28.0114,49.8469 L23.7104,47.8379 L19.3844,48.7479 C18.9724,48.6949 18.6794,48.3289 18.7334,47.9329 L19.6864,41.0849" id="Stroke-303" stroke-width="1.6"></path>
                <path d="M37.6976,45.4235 L38.7646,49.2265 C38.8206,49.6195 39.2036,49.9015 39.6166,49.8475 L43.9176,47.8375 L48.2436,48.7475 C48.6556,48.6945 48.9486,48.3285 48.8936,47.9335 L48.1216,41.1715" id="Stroke-305" stroke-width="1.6"></path>
                <path d="M13.721,11.4352 L11.292,7.7582 C10.992,7.2992 10.962,6.5332 11.232,6.0522 L13.497,2.0212 C13.767,1.5412 14.431,1.2212 14.974,1.3102 L18.409,1.8722 C18.952,1.9602 19.842,2.0982 20.386,2.1792 C20.386,2.1792 21.792,2.3862 21.71,3.0812" id="Stroke-307" stroke-width="1.6"></path>
                <path d="M16.5531,4.1882 C15.8901,4.4052 15.2841,4.7722 14.8091,5.2472" id="Stroke-309" stroke-width="1.2"></path>
                <path d="M54.1136,11.6579 L56.4866,7.8949 C56.7796,7.4299 56.8056,6.6529 56.5486,6.1689 L54.3276,2.0309 C54.0666,1.5469 53.4106,1.2249 52.8686,1.3179 L49.5616,1.8849 C49.0186,1.9759 48.1326,2.1209 47.5896,2.2049 C47.5896,2.2049 46.2406,2.4129 46.3206,3.1229" id="Stroke-311" stroke-width="1.6"></path>
                <path d="M51.3509,4.2536 C51.9969,4.4766 52.5869,4.8516 53.0519,5.3346" id="Stroke-313" stroke-width="1.2"></path>
                <path d="M0.7074,19.8708 C0.8454,18.7868 1.9464,17.9448 3.0674,17.9458 C4.1904,17.9478 5.2354,18.6998 5.7004,19.6948 C6.1654,20.6898 6.0914,21.8758 5.6444,22.8778 C5.4404,23.3318 5.1284,23.7858 4.6454,23.9388 C4.0064,24.1428 3.2824,23.7088 3.0154,23.1068 C2.7434,22.5068 2.8404,21.8058 3.0714,21.1878 C3.5934,19.8128 4.8254,18.6898 6.2944,18.3728 C7.7654,18.0568 9.4184,18.6028 10.3084,19.7858" id="Stroke-315" stroke-width="1.2"></path>
                <path d="M35.8294,0.9548 L35.8294,5.7108 C35.8294,6.1128 35.4854,6.4408 35.0654,6.4408 L32.5244,6.4408 C32.1044,6.4408 31.7624,6.1128 31.7624,5.7108 L31.7624,0.9548" id="Stroke-317" stroke-width="1.6"></path>
                <path d="M25.7825,35.8757 C26.4895,37.0567 27.6625,38.0377 29.1565,38.5627 C30.7195,39.1077 32.3395,39.0517 33.6945,38.5167" id="Stroke-319" stroke-width="1.6"></path>
            </g>
            <g id="Group-324" transform="translate(279.000000, 84.186000)">
                <mask id="mask-116" fill="white">
                    <use xlink:href="#path-115"></use>
                </mask>
                <g id="Clip-323"></g>
                <polygon id="Fill-322" fill="#D2D9DC" mask="url(#mask-116)" points="-4.658 22.201 25.505 22.201 25.505 -4.027 -4.658 -4.027"></polygon>
            </g>
            <g id="Group-327" transform="translate(296.000000, 84.186000)">
                <mask id="mask-118" fill="white">
                    <use xlink:href="#path-117"></use>
                </mask>
                <g id="Clip-326"></g>
                <polygon id="Fill-325" fill="#46626F" opacity="0.2" mask="url(#mask-118)" points="-4.854 21.782 8.667 21.782 8.667 -4.567 -4.854 -4.567"></polygon>
            </g>
            <g id="Group-330" transform="translate(282.000000, 85.186000)">
                <mask id="mask-120" fill="white">
                    <use xlink:href="#path-119"></use>
                </mask>
                <g id="Clip-329"></g>
                <polygon id="Fill-328" fill="#FFFFFF" mask="url(#mask-120)" points="-4.537 20.472 7.224 20.472 7.224 -4.025 -4.537 -4.025"></polygon>
            </g>
            <g id="Group-333" transform="translate(285.000000, 85.186000)">
                <mask id="mask-122" fill="white">
                    <use xlink:href="#path-121"></use>
                </mask>
                <g id="Clip-332"></g>
                <polygon id="Fill-331" fill="#FFFFFF" mask="url(#mask-122)" points="-4.656 20.472 6.224 20.472 6.224 -4.025 -4.656 -4.025"></polygon>
            </g>
            <g id="Group-348" transform="translate(279.000000, 82.186000)" stroke="#46626F" stroke-linecap="round" stroke-linejoin="round" stroke-width="1.2">
                <path d="M20.5062,2.2018 C20.5062,3.2238 15.9912,4.0538 10.4242,4.0538 C4.8572,4.0538 0.3422,3.2238 0.3422,2.2018 C0.3422,1.1808 4.8572,0.3508 10.4242,0.3508 C15.9912,0.3508 20.5062,1.1808 20.5062,2.2018 Z" id="Stroke-334"></path>
                <path d="M20.5062,5.903 C20.5062,6.925 15.9912,7.755 10.4242,7.755 C4.8572,7.755 0.3422,6.925 0.3422,5.903" id="Stroke-336"></path>
                <path d="M20.5062,9.6052 C20.5062,10.6262 15.9912,11.4572 10.4242,11.4572 C4.8572,11.4572 0.3422,10.6262 0.3422,9.6052" id="Stroke-338"></path>
                <path d="M20.5062,13.3063 C20.5062,14.3273 15.9912,15.1583 10.4242,15.1583 C4.8572,15.1583 0.3422,14.3273 0.3422,13.3063" id="Stroke-340"></path>
                <path d="M20.5062,17.0075 C20.5062,18.0295 15.9912,18.8595 10.4242,18.8595 C4.8572,18.8595 0.3422,18.0295 0.3422,17.0075" id="Stroke-342"></path>
                <path d="M0.3421,2.3561 L0.3421,17.0071" id="Stroke-344"></path>
                <path d="M20.5062,2.3561 L20.5062,17.0071" id="Stroke-346"></path>
            </g>
            <g id="Group-351" transform="translate(299.000000, 84.186000)">
                <mask id="mask-124" fill="white">
                    <use xlink:href="#path-123"></use>
                </mask>
                <g id="Clip-350"></g>
                <polygon id="Fill-349" fill="#D2D9DC" mask="url(#mask-124)" points="-4.495 22.201 25.669 22.201 25.669 -4.027 -4.495 -4.027"></polygon>
            </g>
            <g id="Group-354" opacity="0.2" transform="translate(316.000000, 84.186000)">
                <mask id="mask-126" fill="white">
                    <use xlink:href="#path-125"></use>
                </mask>
                <g id="Clip-353"></g>
                <polygon id="Fill-352" fill="#46626F" mask="url(#mask-126)" points="-4.692 21.782 8.829 21.782 8.829 -4.567 -4.692 -4.567"></polygon>
            </g>
            <g id="Group-357" transform="translate(302.000000, 85.186000)">
                <mask id="mask-128" fill="white">
                    <use xlink:href="#path-127"></use>
                </mask>
                <g id="Clip-356"></g>
                <polygon id="Fill-355" fill="#FFFFFF" mask="url(#mask-128)" points="-4.374 20.472 7.387 20.472 7.387 -4.025 -4.374 -4.025"></polygon>
            </g>
            <g id="Group-360" transform="translate(300.000000, 80.186000)" fill="#FFFFFF">
                <polygon id="Fill-358" points="0.507 25.472 11.387 25.472 11.387 0.975 0.507 0.975"></polygon>
            </g>
            <g id="Group-385" transform="translate(4.000000, 0.186000)">
                <path d="M315.6693,84.2018 C315.6693,85.2238 311.1553,86.0538 305.5883,86.0538 C300.0213,86.0538 295.5063,85.2238 295.5063,84.2018 C295.5063,83.1808 300.0213,82.3508 305.5883,82.3508 C311.1553,82.3508 315.6693,83.1808 315.6693,84.2018 Z" id="Stroke-361" stroke="#46626F" stroke-width="1.2" stroke-linecap="round" stroke-linejoin="round"></path>
                <path d="M315.6693,87.903 C315.6693,88.925 311.1553,89.755 305.5883,89.755 C300.0213,89.755 295.5063,88.925 295.5063,87.903" id="Stroke-363" stroke="#46626F" stroke-width="1.2" stroke-linecap="round" stroke-linejoin="round"></path>
                <path d="M315.6693,91.6052 C315.6693,92.6262 311.1553,93.4572 305.5883,93.4572 C300.0213,93.4572 295.5063,92.6262 295.5063,91.6052" id="Stroke-365" stroke="#46626F" stroke-width="1.2" stroke-linecap="round" stroke-linejoin="round"></path>
                <path d="M315.6693,95.3063 C315.6693,96.3273 311.1553,97.1583 305.5883,97.1583 C300.0213,97.1583 295.5063,96.3273 295.5063,95.3063" id="Stroke-367" stroke="#46626F" stroke-width="1.2" stroke-linecap="round" stroke-linejoin="round"></path>
                <path d="M315.6693,99.0075 C315.6693,100.0295 311.1553,100.8595 305.5883,100.8595 C300.0213,100.8595 295.5063,100.0295 295.5063,99.0075" id="Stroke-369" stroke="#46626F" stroke-width="1.2" stroke-linecap="round" stroke-linejoin="round"></path>
                <path d="M295.5062,84.3561 L295.5062,99.0071" id="Stroke-371" stroke="#46626F" stroke-width="1.2" stroke-linecap="round" stroke-linejoin="round"></path>
                <path d="M315.6693,84.3561 L315.6693,99.0071" id="Stroke-373" stroke="#46626F" stroke-width="1.2" stroke-linecap="round" stroke-linejoin="round"></path>
                <path d="M3.887,71.5075 C3.887,72.4405 3.131,73.1955 2.199,73.1955 C1.266,73.1955 0.51,72.4405 0.51,71.5075 C0.51,70.5745 1.266,69.8195 2.199,69.8195 C3.131,69.8195 3.887,70.5745 3.887,71.5075 Z" id="Stroke-375" stroke="#CCDB2A" stroke-width="1.6"></path>
                <path d="M29.887,80.5075 C29.887,81.4405 29.131,82.1955 28.199,82.1955 C27.266,82.1955 26.51,81.4405 26.51,80.5075 C26.51,79.5745 27.266,78.8195 28.199,78.8195 C29.131,78.8195 29.887,79.5745 29.887,80.5075 Z" id="Stroke-377" stroke="#CCDB2A" stroke-width="1.6"></path>
                <path d="M284.3079,1.8747 C283.5549,-0.1133 279.7709,0.2037 279.7709,3.2177 C279.7709,4.7187 280.9279,6.7107 284.3089,8.7287 C287.6879,6.6737 288.8449,4.6677 288.8439,3.1677 C288.8429,0.1697 285.0629,-0.1343 284.3079,1.8747" id="Fill-379" fill="#6FB443"></path>
                <path d="M270.0999,21.5026 C269.6769,20.3866 267.5519,20.5646 267.5519,22.2556 C267.5519,23.0996 268.2029,24.2176 270.0999,25.3506 C271.9979,24.1966 272.6469,23.0696 272.6469,22.2286 C272.6469,20.5456 270.5239,20.3746 270.0999,21.5026" id="Fill-381" fill="#36A53F"></path>
                <path d="M277.3235,31.112 C276.8515,29.866 274.4805,30.064 274.4805,31.954 C274.4805,32.894 275.2055,34.142 277.3235,35.407 C279.4425,34.119 280.1665,32.863 280.1665,31.922 C280.1665,30.045 277.7965,29.853 277.3235,31.112" id="Fill-383" fill="#CBD532"></path>
            </g>
        </g>
    </g>
</svg>