<svg xmlns="http://www.w3.org/2000/svg" viewBox="0 0 481.22 326.29" style=""><defs><style>.cls-1,.cls-2,.cls-3,.cls-4,.cls-5{fill:none;stroke-width:2.5px;}.cls-1,.cls-4{stroke:#8FCCB9;}.cls-1,.cls-3,.cls-4,.cls-5{stroke-linecap:round;}.cls-1,.cls-2,.cls-5{stroke-linejoin:round;}.cls-2,.cls-3,.cls-5{stroke:#6C9CC6;}.cls-3,.cls-4{stroke-miterlimit:10;}</style></defs><g id="Layer_2" data-name="Layer 2"><g id="Layer_1-2" data-name="Layer 1"><path class="cls-1 NmYHYoBn_0" d="M396.53,186.47a4.24,4.24,0,0,1-4.24-4.24h0a4.24,4.24,0,0,1,4.24-4.24"></path><path class="cls-2 NmYHYoBn_1" d="M349.83,44.3v3a10.12,10.12,0,1,0,8.72,0v-3"></path><path class="cls-3 NmYHYoBn_2" d="M201.54,168.14H371.27a0,0,0,0,1,0,0v19.06a6.3,6.3,0,0,1-6.3,6.3H207.84a6.3,6.3,0,0,1-6.3-6.3V168.14A0,0,0,0,1,201.54,168.14Z"></path><path class="cls-3 NmYHYoBn_3" d="M371.27,171.75V86.43a9.35,9.35,0,0,0-9.35-9.34h-151a9.34,9.34,0,0,0-9.34,9.34v32.51"></path><path class="cls-3 NmYHYoBn_4" d="M285.87,194.97L285.87,216.05"></path><path class="cls-3 NmYHYoBn_5" d="M267.51,216.05L304.24,216.05"></path><path class="cls-3 NmYHYoBn_6" d="M293.09,177.44a6.92,6.92,0,0,1-13.83,0"></path><path class="cls-3 NmYHYoBn_7" d="M201.54,172.86L201.54,155.66"></path><path class="cls-4 NmYHYoBn_8" width="91.91" height="64.34" d="M 220.75,87.69 L 306.65999999999997,87.69 A 3,3,0,0,1,309.65999999999997,90.69 L 309.65999999999997,149.03 A 3,3,0,0,1,306.65999999999997,152.03 L 220.75,152.03 A 3,3,0,0,1,217.75,149.03 L 217.75,90.69 A 3,3,0,0,1,220.75,87.69"></path><path class="cls-4 NmYHYoBn_9" d="M217.89,95.75L309.27,95.75"></path><path class="cls-1 NmYHYoBn_10" d="M122.48,221.09L479.97,221.09"></path><path class="cls-3 NmYHYoBn_11" d="M456.18,173.49L456.18,191.37"></path><path class="cls-1 NmYHYoBn_12" d="M412.56,179.77L443,179.77"></path><path class="cls-3 NmYHYoBn_13" d="M460.57,191.37H396.09a8.94,8.94,0,0,1-8.94-8.94h0a8.94,8.94,0,0,1,8.94-8.94h64.48"></path><path class="cls-3 NmYHYoBn_14" d="M444.34,198.16L444.34,216.05"></path><path class="cls-1 NmYHYoBn_15" d="M385.18,211a4.24,4.24,0,0,1-4.24-4.24h0a4.24,4.24,0,0,1,4.24-4.24"></path><path class="cls-1 NmYHYoBn_16" d="M405.28,211.03L437.64,211.03"></path><path class="cls-3 NmYHYoBn_17" d="M448.73,216.05H384.25a8.94,8.94,0,0,1-8.94-8.94h0a9,9,0,0,1,8.94-9h64.48"></path><path class="cls-5 NmYHYoBn_18" d="M140.72,192v12.09a12,12,0,0,0,12,12h7.62a12,12,0,0,0,12-12V192S140.72,191.94,140.72,192Z"></path><path class="cls-5 NmYHYoBn_19" d="M173.13,196.79h3a5.6,5.6,0,0,1,5.58,5.58h0a5.6,5.6,0,0,1-5.58,5.59h-3"></path><path class="cls-5 NmYHYoBn_20" d="M125.27,136.53a35.72,35.72,0,1,1,37.93,35.65c-3,.19-11.69.35-11.69,11.79C151.51,184,125.27,178.67,125.27,136.53Z"></path><path class="cls-5 NmYHYoBn_21" d="M329.45,252.11H50.75a16.93,16.93,0,0,1,0-33.85h40.4l6.95.05a9.1,9.1,0,1,0,0-18.2H48.52"></path><path class="cls-1 NmYHYoBn_22" d="M83.65,271.69L1.25,271.69"></path><path class="cls-5 NmYHYoBn_23" d="M97.78,276.02L97.78,268.95"></path><path class="cls-5 NmYHYoBn_24" d="M101.31,272.49L94.24,272.49"></path><path class="cls-5 NmYHYoBn_25" d="M83.41,291.72L78.58,288.56L83.73,291.17L84.04,285.41L84.36,291.17L89.51,288.56L84.67,291.72L89.51,294.88L84.36,292.27L84.04,298.03L83.73,292.27L78.58,294.88L83.41,291.72Z"></path><path class="cls-5 NmYHYoBn_26" d="M82.06,179.32L77.59,178.59L82.06,177.85L82.79,173.38L83.53,177.85L88,178.59L83.53,179.32L82.79,183.79L82.06,179.32Z"></path><path class="cls-5 NmYHYoBn_27" d="M90.37,141.22L85.53,138.07L90.69,140.68L91,134.91L91.32,140.68L96.47,138.07L91.63,141.22L96.47,144.38L91.32,141.77L91,147.54L90.69,141.77L85.53,144.38L90.37,141.22Z"></path><path class="cls-5 NmYHYoBn_28" d="M108.9,171.04L108.9,163.97"></path><path class="cls-5 NmYHYoBn_29" d="M112.44,167.51L105.37,167.51"></path><path class="cls-1 NmYHYoBn_30" d="M401.55,167.32V25.09A23.84,23.84,0,0,0,377.71,1.25h0a23.84,23.84,0,0,0-23.84,23.84v8.72"></path><path class="cls-1 NmYHYoBn_31" width="23.44" height="10.05" d="M342.47 34.3 L365.91 34.3 L365.91 44.349999999999994 L342.47 44.349999999999994 Z"></path><path class="cls-3 NmYHYoBn_32" d="M338,140.11l-11.69-20a.86.86,0,0,1,1.17-1.17l19.95,11.69a.85.85,0,0,1-.29,1.58l-6.45,1.11-1.11,6.46A.86.86,0,0,1,338,140.11Z"></path><path class="cls-1 NmYHYoBn_33" d="M370.51,221.88V317a8,8,0,0,0,8,8h81.95a8,8,0,0,0,8-8V221"></path><path class="cls-1 NmYHYoBn_34" d="M371.2,273.04L467.76,273.04"></path><path class="cls-3 NmYHYoBn_35" d="M426.33,243.58a6.92,6.92,0,1,1-13.83,0"></path><path class="cls-3 NmYHYoBn_36" d="M426.33,295.58a6.92,6.92,0,1,1-13.83,0"></path></g></g><style data-made-with="vivus-instant">.NmYHYoBn_0{stroke-dasharray:14 16;stroke-dashoffset:15;animation:NmYHYoBn_draw_0 5800ms linear 0ms infinite,NmYHYoBn_fade 5800ms linear 0ms infinite;}.NmYHYoBn_1{stroke-dasharray:61 63;stroke-dashoffset:62;animation:NmYHYoBn_draw_1 5800ms linear 0ms infinite,NmYHYoBn_fade 5800ms linear 0ms infinite;}.NmYHYoBn_2{stroke-dasharray:385 387;stroke-dashoffset:386;animation:NmYHYoBn_draw_2 5800ms linear 0ms infinite,NmYHYoBn_fade 5800ms linear 0ms infinite;}.NmYHYoBn_3{stroke-dasharray:299 301;stroke-dashoffset:300;animation:NmYHYoBn_draw_3 5800ms linear 0ms infinite,NmYHYoBn_fade 5800ms linear 0ms infinite;}.NmYHYoBn_4{stroke-dasharray:22 24;stroke-dashoffset:23;animation:NmYHYoBn_draw_4 5800ms linear 0ms infinite,NmYHYoBn_fade 5800ms linear 0ms infinite;}.NmYHYoBn_5{stroke-dasharray:37 39;stroke-dashoffset:38;animation:NmYHYoBn_draw_5 5800ms linear 0ms infinite,NmYHYoBn_fade 5800ms linear 0ms infinite;}.NmYHYoBn_6{stroke-dasharray:22 24;stroke-dashoffset:23;animation:NmYHYoBn_draw_6 5800ms linear 0ms infinite,NmYHYoBn_fade 5800ms linear 0ms infinite;}.NmYHYoBn_7{stroke-dasharray:18 20;stroke-dashoffset:19;animation:NmYHYoBn_draw_7 5800ms linear 0ms infinite,NmYHYoBn_fade 5800ms linear 0ms infinite;}.NmYHYoBn_8{stroke-dasharray:308 310;stroke-dashoffset:309;animation:NmYHYoBn_draw_8 5800ms linear 0ms infinite,NmYHYoBn_fade 5800ms linear 0ms infinite;}.NmYHYoBn_9{stroke-dasharray:92 94;stroke-dashoffset:93;animation:NmYHYoBn_draw_9 5800ms linear 0ms infinite,NmYHYoBn_fade 5800ms linear 0ms infinite;}.NmYHYoBn_10{stroke-dasharray:358 360;stroke-dashoffset:359;animation:NmYHYoBn_draw_10 5800ms linear 0ms infinite,NmYHYoBn_fade 5800ms linear 0ms infinite;}.NmYHYoBn_11{stroke-dasharray:18 20;stroke-dashoffset:19;animation:NmYHYoBn_draw_11 5800ms linear 0ms infinite,NmYHYoBn_fade 5800ms linear 0ms infinite;}.NmYHYoBn_12{stroke-dasharray:31 33;stroke-dashoffset:32;animation:NmYHYoBn_draw_12 5800ms linear 0ms infinite,NmYHYoBn_fade 5800ms linear 0ms infinite;}.NmYHYoBn_13{stroke-dasharray:158 160;stroke-dashoffset:159;animation:NmYHYoBn_draw_13 5800ms linear 0ms infinite,NmYHYoBn_fade 5800ms linear 0ms infinite;}.NmYHYoBn_14{stroke-dasharray:18 20;stroke-dashoffset:19;animation:NmYHYoBn_draw_14 5800ms linear 0ms infinite,NmYHYoBn_fade 5800ms linear 0ms infinite;}.NmYHYoBn_15{stroke-dasharray:14 16;stroke-dashoffset:15;animation:NmYHYoBn_draw_15 5800ms linear 0ms infinite,NmYHYoBn_fade 5800ms linear 0ms infinite;}.NmYHYoBn_16{stroke-dasharray:33 35;stroke-dashoffset:34;animation:NmYHYoBn_draw_16 5800ms linear 0ms infinite,NmYHYoBn_fade 5800ms linear 0ms infinite;}.NmYHYoBn_17{stroke-dasharray:158 160;stroke-dashoffset:159;animation:NmYHYoBn_draw_17 5800ms linear 0ms infinite,NmYHYoBn_fade 5800ms linear 0ms infinite;}.NmYHYoBn_18{stroke-dasharray:102 104;stroke-dashoffset:103;animation:NmYHYoBn_draw_18 5800ms linear 0ms infinite,NmYHYoBn_fade 5800ms linear 0ms infinite;}.NmYHYoBn_19{stroke-dasharray:24 26;stroke-dashoffset:25;animation:NmYHYoBn_draw_19 5800ms linear 0ms infinite,NmYHYoBn_fade 5800ms linear 0ms infinite;}.NmYHYoBn_20{stroke-dasharray:244 246;stroke-dashoffset:245;animation:NmYHYoBn_draw_20 5800ms linear 0ms infinite,NmYHYoBn_fade 5800ms linear 0ms infinite;}.NmYHYoBn_21{stroke-dasharray:457 459;stroke-dashoffset:458;animation:NmYHYoBn_draw_21 5800ms linear 0ms infinite,NmYHYoBn_fade 5800ms linear 0ms infinite;}.NmYHYoBn_22{stroke-dasharray:83 85;stroke-dashoffset:84;animation:NmYHYoBn_draw_22 5800ms linear 0ms infinite,NmYHYoBn_fade 5800ms linear 0ms infinite;}.NmYHYoBn_23{stroke-dasharray:8 10;stroke-dashoffset:9;animation:NmYHYoBn_draw_23 5800ms linear 0ms infinite,NmYHYoBn_fade 5800ms linear 0ms infinite;}.NmYHYoBn_24{stroke-dasharray:8 10;stroke-dashoffset:9;animation:NmYHYoBn_draw_24 5800ms linear 0ms infinite,NmYHYoBn_fade 5800ms linear 0ms infinite;}.NmYHYoBn_25{stroke-dasharray:70 72;stroke-dashoffset:71;animation:NmYHYoBn_draw_25 5800ms linear 0ms infinite,NmYHYoBn_fade 5800ms linear 0ms infinite;}.NmYHYoBn_26{stroke-dasharray:37 39;stroke-dashoffset:38;animation:NmYHYoBn_draw_26 5800ms linear 0ms infinite,NmYHYoBn_fade 5800ms linear 0ms infinite;}.NmYHYoBn_27{stroke-dasharray:70 72;stroke-dashoffset:71;animation:NmYHYoBn_draw_27 5800ms linear 0ms infinite,NmYHYoBn_fade 5800ms linear 0ms infinite;}.NmYHYoBn_28{stroke-dasharray:8 10;stroke-dashoffset:9;animation:NmYHYoBn_draw_28 5800ms linear 0ms infinite,NmYHYoBn_fade 5800ms linear 0ms infinite;}.NmYHYoBn_29{stroke-dasharray:8 10;stroke-dashoffset:9;animation:NmYHYoBn_draw_29 5800ms linear 0ms infinite,NmYHYoBn_fade 5800ms linear 0ms infinite;}.NmYHYoBn_30{stroke-dasharray:226 228;stroke-dashoffset:227;animation:NmYHYoBn_draw_30 5800ms linear 0ms infinite,NmYHYoBn_fade 5800ms linear 0ms infinite;}.NmYHYoBn_31{stroke-dasharray:67 69;stroke-dashoffset:68;animation:NmYHYoBn_draw_31 5800ms linear 0ms infinite,NmYHYoBn_fade 5800ms linear 0ms infinite;}.NmYHYoBn_32{stroke-dasharray:66 68;stroke-dashoffset:67;animation:NmYHYoBn_draw_32 5800ms linear 0ms infinite,NmYHYoBn_fade 5800ms linear 0ms infinite;}.NmYHYoBn_33{stroke-dasharray:299 301;stroke-dashoffset:300;animation:NmYHYoBn_draw_33 5800ms linear 0ms infinite,NmYHYoBn_fade 5800ms linear 0ms infinite;}.NmYHYoBn_34{stroke-dasharray:97 99;stroke-dashoffset:98;animation:NmYHYoBn_draw_34 5800ms linear 0ms infinite,NmYHYoBn_fade 5800ms linear 0ms infinite;}.NmYHYoBn_35{stroke-dasharray:23 25;stroke-dashoffset:24;animation:NmYHYoBn_draw_35 5800ms linear 0ms infinite,NmYHYoBn_fade 5800ms linear 0ms infinite;}.NmYHYoBn_36{stroke-dasharray:23 25;stroke-dashoffset:24;animation:NmYHYoBn_draw_36 5800ms linear 0ms infinite,NmYHYoBn_fade 5800ms linear 0ms infinite;}@keyframes NmYHYoBn_draw{100%{stroke-dashoffset:0;}}@keyframes NmYHYoBn_fade{0%{stroke-opacity:1;}74.13793103448276%{stroke-opacity:1;}100%{stroke-opacity:0;}}@keyframes NmYHYoBn_draw_0{13.793103448275861%{stroke-dashoffset: 15}39.6551724137931%{ stroke-dashoffset: 0;}100%{ stroke-dashoffset: 0;}}@keyframes NmYHYoBn_draw_1{13.793103448275861%{stroke-dashoffset: 62}39.6551724137931%{ stroke-dashoffset: 0;}100%{ stroke-dashoffset: 0;}}@keyframes NmYHYoBn_draw_2{13.793103448275861%{stroke-dashoffset: 386}39.6551724137931%{ stroke-dashoffset: 0;}100%{ stroke-dashoffset: 0;}}@keyframes NmYHYoBn_draw_3{13.793103448275861%{stroke-dashoffset: 300}39.6551724137931%{ stroke-dashoffset: 0;}100%{ stroke-dashoffset: 0;}}@keyframes NmYHYoBn_draw_4{13.793103448275861%{stroke-dashoffset: 23}39.6551724137931%{ stroke-dashoffset: 0;}100%{ stroke-dashoffset: 0;}}@keyframes NmYHYoBn_draw_5{13.793103448275861%{stroke-dashoffset: 38}39.6551724137931%{ stroke-dashoffset: 0;}100%{ stroke-dashoffset: 0;}}@keyframes NmYHYoBn_draw_6{13.793103448275861%{stroke-dashoffset: 23}39.6551724137931%{ stroke-dashoffset: 0;}100%{ stroke-dashoffset: 0;}}@keyframes NmYHYoBn_draw_7{13.793103448275861%{stroke-dashoffset: 19}39.6551724137931%{ stroke-dashoffset: 0;}100%{ stroke-dashoffset: 0;}}@keyframes NmYHYoBn_draw_8{13.793103448275861%{stroke-dashoffset: 309}39.6551724137931%{ stroke-dashoffset: 0;}100%{ stroke-dashoffset: 0;}}@keyframes NmYHYoBn_draw_9{13.793103448275861%{stroke-dashoffset: 93}39.6551724137931%{ stroke-dashoffset: 0;}100%{ stroke-dashoffset: 0;}}@keyframes NmYHYoBn_draw_10{13.793103448275861%{stroke-dashoffset: 359}39.6551724137931%{ stroke-dashoffset: 0;}100%{ stroke-dashoffset: 0;}}@keyframes NmYHYoBn_draw_11{13.793103448275861%{stroke-dashoffset: 19}39.6551724137931%{ stroke-dashoffset: 0;}100%{ stroke-dashoffset: 0;}}@keyframes NmYHYoBn_draw_12{13.793103448275861%{stroke-dashoffset: 32}39.6551724137931%{ stroke-dashoffset: 0;}100%{ stroke-dashoffset: 0;}}@keyframes NmYHYoBn_draw_13{13.793103448275861%{stroke-dashoffset: 159}39.6551724137931%{ stroke-dashoffset: 0;}100%{ stroke-dashoffset: 0;}}@keyframes NmYHYoBn_draw_14{13.793103448275861%{stroke-dashoffset: 19}39.6551724137931%{ stroke-dashoffset: 0;}100%{ stroke-dashoffset: 0;}}@keyframes NmYHYoBn_draw_15{13.793103448275861%{stroke-dashoffset: 15}39.6551724137931%{ stroke-dashoffset: 0;}100%{ stroke-dashoffset: 0;}}@keyframes NmYHYoBn_draw_16{13.793103448275861%{stroke-dashoffset: 34}39.6551724137931%{ stroke-dashoffset: 0;}100%{ stroke-dashoffset: 0;}}@keyframes NmYHYoBn_draw_17{13.793103448275861%{stroke-dashoffset: 159}39.6551724137931%{ stroke-dashoffset: 0;}100%{ stroke-dashoffset: 0;}}@keyframes NmYHYoBn_draw_18{13.793103448275861%{stroke-dashoffset: 103}39.6551724137931%{ stroke-dashoffset: 0;}100%{ stroke-dashoffset: 0;}}@keyframes NmYHYoBn_draw_19{13.793103448275861%{stroke-dashoffset: 25}39.6551724137931%{ stroke-dashoffset: 0;}100%{ stroke-dashoffset: 0;}}@keyframes NmYHYoBn_draw_20{13.793103448275861%{stroke-dashoffset: 245}39.6551724137931%{ stroke-dashoffset: 0;}100%{ stroke-dashoffset: 0;}}@keyframes NmYHYoBn_draw_21{13.793103448275861%{stroke-dashoffset: 458}39.6551724137931%{ stroke-dashoffset: 0;}100%{ stroke-dashoffset: 0;}}@keyframes NmYHYoBn_draw_22{13.793103448275861%{stroke-dashoffset: 84}39.6551724137931%{ stroke-dashoffset: 0;}100%{ stroke-dashoffset: 0;}}@keyframes NmYHYoBn_draw_23{13.793103448275861%{stroke-dashoffset: 9}39.6551724137931%{ stroke-dashoffset: 0;}100%{ stroke-dashoffset: 0;}}@keyframes NmYHYoBn_draw_24{13.793103448275861%{stroke-dashoffset: 9}39.6551724137931%{ stroke-dashoffset: 0;}100%{ stroke-dashoffset: 0;}}@keyframes NmYHYoBn_draw_25{13.793103448275861%{stroke-dashoffset: 71}39.6551724137931%{ stroke-dashoffset: 0;}100%{ stroke-dashoffset: 0;}}@keyframes NmYHYoBn_draw_26{13.793103448275861%{stroke-dashoffset: 38}39.6551724137931%{ stroke-dashoffset: 0;}100%{ stroke-dashoffset: 0;}}@keyframes NmYHYoBn_draw_27{13.793103448275861%{stroke-dashoffset: 71}39.6551724137931%{ stroke-dashoffset: 0;}100%{ stroke-dashoffset: 0;}}@keyframes NmYHYoBn_draw_28{13.793103448275861%{stroke-dashoffset: 9}39.6551724137931%{ stroke-dashoffset: 0;}100%{ stroke-dashoffset: 0;}}@keyframes NmYHYoBn_draw_29{13.793103448275861%{stroke-dashoffset: 9}39.6551724137931%{ stroke-dashoffset: 0;}100%{ stroke-dashoffset: 0;}}@keyframes NmYHYoBn_draw_30{13.793103448275861%{stroke-dashoffset: 227}39.6551724137931%{ stroke-dashoffset: 0;}100%{ stroke-dashoffset: 0;}}@keyframes NmYHYoBn_draw_31{13.793103448275861%{stroke-dashoffset: 68}39.6551724137931%{ stroke-dashoffset: 0;}100%{ stroke-dashoffset: 0;}}@keyframes NmYHYoBn_draw_32{13.793103448275861%{stroke-dashoffset: 67}39.6551724137931%{ stroke-dashoffset: 0;}100%{ stroke-dashoffset: 0;}}@keyframes NmYHYoBn_draw_33{13.793103448275861%{stroke-dashoffset: 300}39.6551724137931%{ stroke-dashoffset: 0;}100%{ stroke-dashoffset: 0;}}@keyframes NmYHYoBn_draw_34{13.793103448275861%{stroke-dashoffset: 98}39.6551724137931%{ stroke-dashoffset: 0;}100%{ stroke-dashoffset: 0;}}@keyframes NmYHYoBn_draw_35{13.793103448275861%{stroke-dashoffset: 24}39.6551724137931%{ stroke-dashoffset: 0;}100%{ stroke-dashoffset: 0;}}@keyframes NmYHYoBn_draw_36{13.793103448275861%{stroke-dashoffset: 24}39.6551724137931%{ stroke-dashoffset: 0;}100%{ stroke-dashoffset: 0;}}</style></svg>
